<svg width="139" height="112" viewBox="0 0 139 112" fill="none" xmlns="http://www.w3.org/2000/svg">
<path d="M136 29.75L136 96.625C136 98.471 135.655 100.195 134.966 101.797C134.277 103.4 133.33 104.81 132.124 106.029C130.918 107.248 129.505 108.206 127.886 108.903C126.266 109.599 124.561 109.965 122.769 110L63.2308 110C61.4046 110 59.6991 109.652 58.1142 108.955C56.5292 108.258 55.1338 107.301 53.9279 106.082C52.722 104.862 51.7744 103.452 51.0853 101.85C50.3962 100.247 50.0345 98.5059 50 96.625L50 29.75L63.2308 29.75L63.2308 23.0625C63.2308 20.3109 63.7476 17.716 64.7812 15.2778C65.8149 12.8397 67.2448 10.715 69.0709 8.90381C70.897 7.09261 72.9988 5.66455 75.3762 4.61963C77.7536 3.57471 80.3205 3.03483 83.0769 3C86.6603 3 89.9852 3.9056 93.0517 5.7168C96.1182 3.9056 99.4087 3 102.923 3C105.645 3 108.212 3.52246 110.624 4.56738C113.036 5.6123 115.137 7.05778 116.929 8.90381C118.721 10.7498 120.133 12.8745 121.167 15.2778C122.201 17.6812 122.735 20.276 122.769 23.0625L122.769 29.75L136 29.75ZM116.154 23.0625C116.154 21.2513 115.809 19.5272 115.12 17.8901C114.431 16.2531 113.484 14.8424 112.278 13.6582C111.072 12.474 109.659 11.5161 108.04 10.7847C106.42 10.0532 104.715 9.6875 102.923 9.6875C101.373 9.6875 99.9083 9.94873 98.53 10.4712C99.5292 11.7251 100.322 12.9616 100.907 14.1807C101.493 15.3997 101.924 16.6188 102.2 17.8379C102.475 19.057 102.665 20.2935 102.768 21.5474C102.871 22.8013 102.923 24.1423 102.923 25.5703L102.923 29.75L116.154 29.75L116.154 23.0625ZM69.8462 29.75L96.3077 29.75L96.3077 23.0625C96.3077 21.2513 95.9631 19.5272 95.274 17.8901C94.5849 16.2531 93.6374 14.8424 92.4315 13.6582C91.2256 12.474 89.8129 11.5161 88.1935 10.7847C86.5741 10.0532 84.8686 9.6875 83.0769 9.6875C81.2508 9.6875 79.5453 10.0358 77.9603 10.7324C76.3754 11.429 74.98 12.3869 73.774 13.606C72.5681 14.825 71.6206 16.2531 70.9315 17.8901C70.2424 19.5272 69.8806 21.2513 69.8462 23.0625L69.8462 29.75ZM111.296 103.312C110.124 101.223 109.538 98.9935 109.538 96.625L109.538 36.4375L56.6154 36.4375L56.6154 96.625C56.6154 97.5654 56.7877 98.4362 57.1322 99.2373C57.4768 100.038 57.9419 100.735 58.5276 101.327C59.1134 101.919 59.8197 102.407 60.6466 102.79C61.4736 103.173 62.3349 103.347 63.2308 103.312L111.296 103.312ZM129.385 36.4375L116.154 36.4375L116.154 96.625C116.154 97.5654 116.326 98.4362 116.671 99.2373C117.015 100.038 117.48 100.735 118.066 101.327C118.652 101.919 119.358 102.407 120.185 102.79C121.012 103.173 121.873 103.347 122.769 103.312C123.7 103.312 124.561 103.138 125.353 102.79C126.146 102.442 126.835 101.972 127.421 101.379C128.006 100.787 128.489 100.073 128.868 99.2373C129.247 98.4014 129.419 97.5306 129.385 96.625L129.385 36.4375Z" fill="white"/>
<path d="M40 60.7964L40 68.2036L24.8037 68.2036L24.8037 83L17.1963 83L17.1963 68.2036L2 68.2036L2 60.7964L17.1963 60.7964L17.1963 46L24.8037 46L24.8037 60.7964L40 60.7964Z" fill="white"/>
</svg>
