<svg width="115" height="18" viewBox="0 0 115 18" fill="none" xmlns="http://www.w3.org/2000/svg">
<path d="M114.101 9.08005C110.233 6.00857 105.848 3.3996 100.859 3.01419C97.8576 2.78294 94.6823 3.53005 92.1234 5.20217C89.8786 2.92524 86.8079 1.33021 83.9118 0.624605C79.2709 -0.507926 74.2229 0.440791 70.2799 3.19207C70.0182 3.36996 69.7623 3.56563 69.5006 3.76723C66.366 1.83422 62.5393 0.974444 58.9336 0.998162C55.2698 1.02188 51.5885 1.97653 48.4074 3.83838C47.5234 3.10313 46.558 2.4746 45.581 1.97653C39.0558 -1.38549 30.0242 -0.241099 24.3714 4.68037C16.4563 -0.851836 4.85413 3.01419 0.387733 11.4222C0.137661 11.8966 0.829721 12.3175 1.10306 11.8432C4.38888 6.12716 10.6 2.7948 17.1135 3.6605C19.1722 3.93326 21.3821 4.61515 23.2373 5.77732C22.8186 6.22204 22.4173 6.69046 22.0509 7.18854C20.8122 8.86658 20.1027 10.9597 20.8587 13.0113C21.4694 14.6656 22.9814 15.9108 24.7727 15.6973C26.6046 15.478 28.0585 13.7584 28.4365 11.9855C28.8901 9.84495 27.7851 7.7637 26.3196 6.29912C26.1335 6.1153 25.9416 5.94335 25.7497 5.7714C26.7616 5.00649 27.8491 4.37204 28.8087 3.87989C31.3152 2.59319 34.13 1.88166 36.9331 1.84015C39.6956 1.79864 42.4812 2.39159 44.918 3.73758C45.517 4.06963 46.1393 4.47284 46.7383 4.92941C46.5754 5.048 46.4068 5.17252 46.2439 5.29704C43.2954 7.60361 40.3411 12.7089 44.1212 15.8041C47.3082 18.413 51.5943 15.5491 52.1119 11.8965C52.4725 9.3528 51.4838 7.09367 49.8962 5.27925C51.0244 4.6863 52.205 4.21194 53.3565 3.8621C57.8985 2.4746 63.6152 2.67028 67.9188 5.14287C65.6856 7.34864 63.9816 10.3015 64.8365 13.4679C65.8717 17.3102 70.1869 18.5554 72.9202 15.6736C75.9792 12.448 74.5312 7.88822 71.5245 5.24367C71.4605 5.19031 71.3907 5.13694 71.3267 5.07765C75.7524 1.95874 81.632 1.43694 86.5637 3.87396C87.5698 4.37204 89.076 5.34447 90.4078 6.55409C90.0298 6.91579 89.6692 7.30713 89.3436 7.7222C87.5175 10.0347 85.9879 15.3772 90.1461 16.2725C94.3508 17.1797 96.049 12.1812 94.7114 8.96146C94.409 8.23806 94.0193 7.55024 93.5657 6.90393C99.8757 3.02012 107.302 6.48886 112.507 10.7047C113.63 11.6357 115.246 9.98726 114.101 9.08005ZM25.6624 7.85857C26.9186 9.35873 27.5234 11.6297 26.0521 13.2307C24.0748 15.3772 21.8939 12.8512 22.2545 10.6336C22.4987 9.16306 23.406 7.8645 24.5691 6.76755C24.9646 7.0996 25.331 7.4613 25.6624 7.85857ZM50.1113 11.7542C49.6868 13.7465 47.5583 15.5669 45.61 14.2861C43.5862 12.952 44.4004 10.1414 45.6798 8.57604C46.3952 7.69848 47.2675 6.9395 48.2213 6.2754C49.6286 7.78149 50.5591 9.65521 50.1113 11.7542ZM70.5533 7.14704C71.635 8.2262 72.6469 9.74415 72.6178 11.351C72.5946 12.9283 71.414 14.9324 69.7682 15.1518C67.5815 15.4424 66.4532 12.9816 66.7789 11.0724C67.0581 9.42989 68.1107 8.00088 69.2389 6.84463C69.396 6.68454 69.5588 6.54223 69.7216 6.38806C70.0066 6.63117 70.2916 6.88021 70.5533 7.14704ZM92.7631 13.0647C92.5363 13.4323 92.0653 13.7703 91.6873 13.9422C90.8382 14.3395 90.559 14.1616 90.0356 13.4441C89.361 12.5251 89.6169 11.6001 90.0763 10.598C90.5009 9.67299 91.1522 8.8488 91.9024 8.14912C93.1237 9.72636 93.7518 11.4756 92.7631 13.0647Z" fill="#FEACA1"/>
</svg>
