<svg width="39" height="37" viewBox="0 0 39 37" fill="none" xmlns="http://www.w3.org/2000/svg">
<path d="M2.73645 13.9251C3.52164 12.4796 4.5299 11.1501 5.62292 9.88757C6.72486 8.63394 7.89372 7.44723 9.16519 6.37206C11.6858 4.22617 14.5991 2.4818 17.7487 1.69661C19.8902 1.12556 22.1521 1.11217 24.2578 1.69214C26.3635 2.28996 28.2774 3.51682 29.8701 5.06489C31.5788 6.63081 32.9573 8.56256 34.0637 10.6505C35.1746 12.7428 36.0223 14.9824 36.7941 17.2532C37.3339 19.1314 37.9495 21.0051 38.0789 22.9101C38.1458 23.8604 38.0477 24.8062 37.7889 25.7074C37.5168 26.6041 37.0841 27.4562 36.5442 28.2369C35.5717 29.6645 34.2824 30.8736 32.8726 31.9086C31.4628 32.9436 29.9103 33.7913 28.2864 34.4426C26.2252 35.4241 23.9812 36.0621 21.6792 36.3387C20.5192 36.3387 19.3593 36.2227 18.2261 36.0442C17.0974 35.8345 15.9865 35.5445 14.9158 35.152C9.23658 33.4254 4.37821 28.9864 2.35278 23.3919C2.93275 25.2211 3.81163 26.9744 4.93141 28.5671C6.06012 30.1597 7.44313 31.5784 8.99566 32.8008C12.1052 35.2323 16.0088 36.7625 20.0552 36.9811C22.9952 37.0391 25.9397 36.4948 28.6656 35.3929C31.3825 34.2909 33.9121 32.6982 35.9821 30.5568C37.3339 29.098 38.4626 27.309 38.8373 25.2657C39.2166 23.209 38.7526 21.1925 38.2128 19.35C37.0974 15.6828 35.9107 11.9621 33.8987 8.62056C32.5558 6.47467 30.8338 4.55631 28.7726 3.11976C27.7376 2.41488 26.6267 1.8126 25.4445 1.41554C24.8556 1.21032 24.2533 1.05418 23.6421 0.960491C23.0354 0.82665 22.4153 0.804347 21.8041 0.764194C19.4396 0.541129 16.9948 0.978339 14.7507 1.89291C12.4844 2.77625 10.4099 4.10125 8.48707 5.60471C7.00146 6.92972 5.6586 8.39749 4.43621 9.95003C3.21827 11.507 2.12525 13.1979 1.41144 15.0716C0.684249 16.9231 0.403184 18.9797 0.755628 20.9471C0.929619 21.9242 1.24637 22.8834 1.72819 23.7489C2.21894 24.6143 2.87029 25.3817 3.65994 25.975C2.06725 24.6322 1.23299 22.6201 1.07238 20.6304C0.885005 18.6228 1.38467 16.6331 2.28139 14.8619" fill="#F69618"/>
</svg>
