<svg width="38" height="37" viewBox="0 0 38 37" fill="none" xmlns="http://www.w3.org/2000/svg">
<path d="M16.9823 35.4517C15.4179 34.8997 13.9394 34.1515 12.5136 33.3113C11.0879 32.4649 9.71499 31.551 8.43447 30.5329C5.88664 28.5029 3.62923 26.1048 2.2101 23.3326C1.69525 22.4004 1.35862 21.4007 1.08799 20.401C1.00218 19.8919 0.870172 19.389 0.856971 18.8738C0.84377 18.6162 0.797566 18.3586 0.810767 18.1011L0.843772 17.3283C0.969184 15.2798 1.82726 13.2865 3.09458 11.5754C4.34869 9.74158 6.07146 8.18376 8.00544 6.8774C9.93942 5.5649 12.078 4.4916 14.2496 3.4919C16.0648 2.76206 17.8601 1.94635 19.7545 1.60289C20.6984 1.42503 21.6621 1.40663 22.5994 1.54156C23.5367 1.68876 24.4542 1.97088 25.3188 2.36954C26.8964 3.07485 28.3155 4.08682 29.5828 5.23985C30.8567 6.38675 31.9855 7.67471 32.9293 9.07306C33.6026 9.94397 34.2033 10.8701 34.7379 11.833C35.2462 12.802 35.7148 13.8079 36.0712 14.8505C36.5135 16.9971 36.5927 19.1928 36.2098 21.3087C35.6158 26.8653 31.9458 32.1153 26.5928 34.6851C28.3485 33.9184 29.9789 32.8635 31.4046 31.6001C32.8171 30.3183 34.0184 28.8218 34.9689 27.1842C35.8996 25.5406 36.5663 23.7497 36.9293 21.8913C37.2791 20.033 37.2923 18.1133 37.0283 16.2243C35.9656 10.7719 32.5993 5.77956 27.7215 2.55353C26.0515 1.51703 24.1043 0.713586 22.0119 0.609323C19.8997 0.498926 17.9328 1.17357 16.1506 1.90342C12.6193 3.3999 9.03513 4.96386 5.97905 7.30058C4.03847 8.8584 2.37511 10.7474 1.33882 12.9063C0.810769 13.9796 0.460936 15.1265 0.29592 16.2856C0.137506 17.4509 0.210112 18.6224 0.434532 19.7631C0.533542 20.8794 0.896579 21.9649 1.29922 23.0321C1.75466 24.0809 2.30251 25.1051 2.96257 26.0619C4.27609 27.9938 5.93944 29.7111 7.75461 31.2628C9.32556 32.4342 10.9955 33.4707 12.7381 34.3907C14.4806 35.3045 16.3288 36.0957 18.2958 36.5312C20.2496 36.9789 22.3486 37.0218 24.2825 36.476C25.2462 36.2 26.1637 35.7952 26.9756 35.2432C27.7809 34.6851 28.4607 33.9675 28.9294 33.1457C27.8337 34.8261 25.9063 35.8504 23.9261 36.2122C21.9327 36.6109 19.8667 36.3594 17.9724 35.7461" fill="#F69618"/>
</svg>
