<svg width="37" height="36" viewBox="0 0 37 36" fill="none" xmlns="http://www.w3.org/2000/svg">
<path d="M25.9072 3.80185C28.9307 5.31435 31.5069 7.49908 33.2223 10.1068C34.9709 12.7088 35.6651 15.7454 35.3647 18.7357C35.0243 22.8269 33.309 26.9182 30.1721 29.978C28.6036 31.6006 26.6213 32.9277 24.3654 33.8027C22.1228 34.672 19.6133 35.1066 17.1371 34.9038C15.1214 34.672 13.1859 34.0461 11.277 33.3797C9.37481 32.7075 7.47931 31.9947 5.89081 30.9226C5.16331 30.4474 4.52256 29.8853 3.98862 29.2594C3.46134 28.6278 3.06088 27.915 2.74719 27.1732C2.13315 25.6781 1.85282 24.0613 1.61922 22.4619C1.18539 20.3872 0.951787 18.272 0.931764 16.1453C1.19874 14.0417 1.65259 11.9091 2.74719 10.0721C3.36123 8.83773 4.32233 7.75986 5.47032 6.86163C6.62499 5.9634 7.9999 5.29117 9.43489 4.74644C12.3249 3.66856 15.4685 3.13542 18.5988 2.67182C16.5497 2.89782 14.5074 3.14701 12.4984 3.55846C10.4961 3.96411 8.51382 4.54941 6.6984 5.45923C5.78402 5.90545 4.95639 6.47915 4.18217 7.11081L3.62821 7.60919C3.448 7.78304 3.29449 7.96848 3.12763 8.15392C2.78056 8.50742 2.50691 8.91307 2.23994 9.31872C1.19207 10.9587 0.684814 12.8015 0.391143 14.6154C0.110821 17.2637 0.157545 19.9294 0.531309 22.5662C0.724865 23.8816 0.951793 25.1913 1.3656 26.5068C1.77941 27.8107 2.42682 29.1319 3.47469 30.2272C4.90967 31.676 6.80519 32.6032 8.68068 33.3275C9.62844 33.6868 10.5829 34.0056 11.5306 34.3127C12.4851 34.6198 13.4595 34.9096 14.4607 35.1414C16.4563 35.6224 18.6054 35.7846 20.6678 35.5181C22.7302 35.2573 24.7125 34.6256 26.5012 33.7332C28.8105 32.522 30.7394 30.8357 32.1677 28.9001C33.6161 26.9762 34.5838 24.8088 35.1645 22.6009C35.892 20.5031 36.3058 18.301 36.1923 16.0699C36.0922 13.8446 35.3714 11.6251 34.15 9.62586C31.9408 6.46756 28.5702 4.01627 24.7458 2.53853C20.9148 1.055 16.7033 0.469705 12.5652 0.620375C16.8901 0.689916 21.2018 1.55917 24.9194 3.34984" fill="#F69618"/>
</svg>
