<svg width="13" height="20" viewBox="0 0 13 20" fill="none" xmlns="http://www.w3.org/2000/svg">
<path fill-rule="evenodd" clip-rule="evenodd" d="M12.4714 11.9044C12.2779 11.9756 12.1027 12.0558 11.9122 12.127C11.8999 12.1448 11.8845 12.133 11.8722 12.1508C11.4881 12.1033 11.2146 12.409 10.8274 12.4061C10.6615 12.3972 10.4894 12.6227 10.3388 12.7415C10.1637 12.9107 10.01 13.0888 9.88401 13.2817C9.96084 13.2728 10.1575 13.2847 10.1729 13.3886C10.1852 13.4599 9.91167 13.4213 9.83484 13.3619C9.69656 13.5905 9.60437 13.8428 9.57364 14.1367C9.56442 14.297 9.49375 14.3712 9.31859 14.4513C8.92218 14.6086 8.81462 14.9203 9.05124 15.3003C9.14036 15.425 9.0666 15.4992 9.02973 15.5942C8.74702 15.986 8.61488 16.3749 8.53805 16.8231C8.31373 16.4966 8.24919 16.1522 8.08633 15.8406C7.92346 15.5289 7.77596 15.2023 7.57315 14.9144C7.5332 14.8669 7.51168 14.7838 7.48403 14.7185C7.46559 14.6354 7.44101 14.5968 7.53627 14.4899C7.85586 14.1901 8.21539 13.9407 8.55649 13.6795C9.03894 13.3174 9.37083 12.8127 9.7611 12.3675C10.0131 12.0973 10.2282 11.8064 10.4372 11.4858C10.7229 11.0198 10.895 10.5211 10.9473 9.98676C10.9012 9.99864 10.9104 9.98973 10.9473 9.96895C10.9534 9.90068 10.9595 9.83241 10.9595 9.76116C10.9626 9.38714 10.7998 9.00421 10.6031 8.67174C10.5662 8.6094 10.4986 8.57972 10.4279 8.56784C10.4156 8.61534 10.391 8.65096 10.3634 8.63612C10.3849 8.60346 10.3818 8.57972 10.3695 8.56488C10.3296 8.56488 10.2896 8.56784 10.2528 8.57675C9.51833 8.69252 8.92217 9.00717 8.46123 9.5979C8.33216 9.75522 8.1355 9.87099 8.12935 10.1025C8.13243 10.1738 8.04023 10.1649 7.98185 10.1767C7.54241 10.2124 7.69299 11.2484 7.58237 11.4146C7.46867 11.6253 7.29965 11.8064 7.39184 12.0766C7.23512 12.1686 7.25971 12.3497 7.21976 12.4892C7.16752 12.7177 7.06917 12.9404 7.11527 13.1304C7.16751 13.35 7.02616 13.5252 7.05689 13.7775C6.83871 13.4806 6.6912 13.1868 6.54985 12.8958C6.48839 12.8958 6.37777 12.878 6.51912 12.8662C6.52834 12.8691 6.53141 12.8691 6.53756 12.8721C6.49761 12.792 6.46073 12.7118 6.42079 12.6346C6.26406 12.2784 6.10734 11.9252 5.93219 11.5571C5.89531 11.4651 5.85843 11.3701 5.92603 11.2691C5.96906 11.2009 5.93525 11.1088 5.86765 11.0228C5.73244 10.8921 5.77854 10.8268 5.96906 10.7556C6.01515 10.7348 6.05818 10.714 6.10427 10.6903C6.09198 10.6072 6.135 10.4498 6.07968 10.4172C6.17187 10.343 6.28864 10.4439 6.40542 10.527C6.49453 10.4736 6.58365 10.4172 6.66969 10.3608C6.83871 10.251 6.98313 10.1055 7.20439 10.0283C7.31194 9.97786 7.40106 9.91255 7.5332 9.90068C7.55163 9.91255 7.62846 9.86506 7.61616 9.81163C7.61309 9.74038 7.65304 9.71663 7.71758 9.73148C7.75138 9.75225 7.78211 9.74632 7.80362 9.71367C7.95112 9.45244 8.25227 9.32777 8.45816 9.12591C8.60259 8.98046 8.78389 8.85281 8.98056 8.74001C9.18952 8.6094 9.28786 8.38677 9.4538 8.20569C9.78875 7.84651 10.0008 7.41014 10.1514 6.96191C10.2466 6.66803 10.1944 6.37712 10.2466 6.07731C10.262 6.01497 10.222 5.96748 10.136 5.98529C10.0899 5.97935 10.0284 5.96451 10.0254 5.89327C10.0223 5.82202 10.0469 5.78937 10.0838 5.76562C10.3665 5.59345 10.5293 5.32629 10.7229 5.09178C10.6953 5.09178 10.6738 5.04726 10.683 4.91962C10.8274 4.83947 10.8397 4.91664 10.812 4.99086L10.8151 4.98789C10.8766 4.93149 10.935 4.54559 10.557 4.45357C10.345 4.37045 10.1145 4.27546 9.89938 4.19234C9.76724 4.13594 9.64124 4.10329 9.49681 4.13594C9.24176 4.19234 8.97134 4.1211 8.71629 4.17453C8.54728 4.21015 8.36904 4.22203 8.2031 4.21312C7.99107 4.20125 7.75752 4.40904 7.74523 4.61386C7.75138 4.82759 7.61002 4.93149 7.43486 5.01164C7.27199 5.07694 7.11834 5.19568 6.96162 5.2877C6.84792 5.12444 6.94934 5.04429 7.08455 4.98789C7.15215 4.9582 7.25355 4.95227 7.22282 4.81275C7.19824 4.70292 7.3058 4.65245 7.38262 4.60496C7.59159 4.47434 7.84664 4.41795 7.88659 4.13594C7.89273 4.09142 7.94805 4.07954 7.9757 4.0736C8.30144 3.92518 8.63639 3.80941 8.97442 3.70255C8.9191 3.68177 8.84842 3.58678 9.01129 3.63724C9.01744 3.66099 9.02051 3.6788 9.01743 3.69068C9.42614 3.56303 9.83791 3.4532 10.2466 3.32555C10.8305 3.14151 11.273 2.80014 11.6571 2.33112C11.8569 2.09958 12.0935 1.89179 12.3117 1.67213C12.4284 1.53261 12.5268 1.38122 12.6159 1.24764C12.7081 1.06953 12.5606 0.885484 12.2748 0.802367C11.7708 0.680661 11.2853 0.713317 10.7905 0.76378C10.2497 0.808307 9.74573 1.01906 9.24791 1.18233C8.97134 1.27138 8.88223 1.40497 8.94676 1.68103C8.97134 1.79086 8.92218 1.82945 8.83306 1.89179C8.46124 2.15895 8.09248 2.42611 7.87122 2.83279C7.81591 2.91591 7.70835 2.96934 7.70528 3.08511C7.68992 2.95747 7.59773 2.87732 7.57315 2.76749C7.55778 2.63984 7.57314 2.50923 7.53012 2.38752C7.49939 2.25098 7.53627 2.15598 7.567 2.03428C7.57314 1.98975 7.55778 1.93632 7.54242 1.92444C7.28121 1.6929 7.25971 1.35153 7.16137 1.05469C7.09377 0.823148 6.97391 0.633168 6.85714 0.443187C6.78646 0.327417 6.72194 0.241333 6.65126 0.128532C6.60516 0.0513517 6.54678 -0.00801968 6.4423 0.000885676C6.34089 0.00979104 6.26099 0.0543178 6.22411 0.149308C6.03666 0.505523 5.86457 0.846894 5.69556 1.21498C5.61259 1.37528 5.5665 1.55933 5.55728 1.71962C5.53885 1.89773 5.64947 3.02574 5.6925 3.14448C5.78468 3.48585 5.96598 3.80644 6.01208 4.14188C6.03973 4.3942 6.19338 4.60792 6.23333 4.84243C6.24869 4.97008 6.30709 5.10069 6.45152 5.14225C6.53141 5.16897 6.55599 5.20755 6.51297 5.27286C6.41156 5.4005 6.3501 5.56377 6.2702 5.71219C6.38083 5.70625 6.49454 5.68548 6.53448 5.58752C6.66662 5.88139 6.39313 5.81608 6.19953 5.82499C6.19031 5.83983 6.1811 5.85171 6.17188 5.86655C6.15344 5.86061 6.13807 5.84874 6.12577 5.83687C6.09505 5.84577 6.06739 5.85765 6.04895 5.87842C5.99671 5.78343 6.0213 5.74781 6.08276 5.73C6.07661 5.70329 6.07354 5.67954 6.06432 5.65876C5.9875 5.35597 5.88916 5.0621 5.76932 4.77713C5.6925 4.80978 5.72937 4.68511 5.64025 4.63168C5.65869 4.61683 5.67713 4.60792 5.6925 4.60496C5.55728 4.31998 5.39749 4.04392 5.20082 3.7827C5.09634 3.64615 4.94269 3.50663 4.84743 3.35524C4.80134 3.27806 4.74295 3.21869 4.72144 3.13854C4.71222 3.04058 4.66612 2.9634 4.56471 2.97231C4.44487 2.96934 4.40799 2.87732 4.3496 2.81795C3.99928 2.46174 3.56292 2.19457 3.12964 1.92741C3.04359 1.87398 2.92682 1.82648 2.79468 1.9571C2.65333 2.08177 2.6226 2.20941 2.63489 2.33706C2.69943 2.2955 2.59494 2.09661 2.72094 2.19457C2.67177 2.22426 2.78547 2.43799 2.63489 2.34893C2.64719 2.47658 2.69942 2.60719 2.72094 2.7378C2.72708 2.76452 2.72401 2.80904 2.73015 2.83576C2.70557 3.05839 2.68407 3.27806 2.83157 3.4621C2.85001 3.47398 2.82542 3.50663 2.8162 3.52444C2.77932 3.69067 2.76703 3.82425 2.96677 3.92518C3.10505 4.01127 3.21261 4.14485 3.12657 4.35264C3.0098 4.63464 3.13271 4.87806 3.41235 5.02945C3.43079 5.02351 3.44923 5.02351 3.46766 5.03835C3.46152 5.04132 3.45845 5.04429 3.4523 5.05022C3.45845 5.05319 3.46152 5.05616 3.46766 5.05913C3.67048 5.16006 3.83949 5.31145 3.861 5.53705C3.87944 5.62017 3.93168 5.65282 3.9747 5.70032C4.19903 5.99716 4.42643 6.29104 4.65076 6.58788C4.70914 6.58788 4.72144 6.6146 4.70914 6.65319C4.76138 6.70069 4.81977 6.73927 4.8843 6.79864C4.96113 6.86988 5.5327 7.40718 5.54499 7.53482C5.57572 7.67137 5.54499 7.79308 5.50196 7.93259C5.46816 8.07508 5.4405 8.22053 5.41592 8.36302C5.4528 8.37489 5.48968 8.38083 5.52963 8.37192C5.47739 8.43129 5.51734 8.50253 5.47124 8.5619C5.47431 8.49363 5.44358 8.45504 5.40364 8.43129C5.35447 8.71923 5.31144 9.00717 5.26535 9.29215C5.25306 9.30996 5.24384 9.3248 5.22233 9.36042C5.15165 9.05764 4.98263 8.82907 4.87815 8.57675C4.8505 8.53519 4.82898 8.46988 4.81977 8.40161C4.81669 8.38974 4.81362 8.38083 4.81362 8.38083C4.54935 8.3363 4.4633 8.09586 4.29429 7.94447C4.16523 7.84354 4.06997 7.68918 4.12528 7.53482C4.20518 7.30031 3.71351 6.71553 3.56908 6.74818C3.26178 6.84317 3.17881 6.60273 2.98522 6.48399C2.72401 6.32369 2.49353 6.15746 2.19853 6.04762C2.00186 5.97341 1.75295 5.98529 1.66998 5.70032C1.65154 5.6172 1.52556 5.58752 1.45795 5.68844C1.34733 5.85765 1.20904 5.77156 1.06461 5.73C1.04618 5.71813 1.02466 5.68251 1.01237 5.69735C0.797262 5.80124 0.714288 5.63204 0.576005 5.54596C0.437721 5.45987 0.357832 5.50737 0.305592 5.66173C0.1796 6.07731 0.342465 6.46024 0.505332 6.84317C0.505332 6.84614 0.508399 6.84911 0.508399 6.85208C0.545274 6.87582 0.566786 6.91441 0.557567 6.953C0.640537 7.11033 0.735803 7.26469 0.840284 7.40421C1.08919 7.76933 1.38112 8.06618 1.69149 8.3749C1.94347 8.62424 2.12478 8.90031 2.41672 9.12591C2.48739 9.17935 2.55807 9.22981 2.62875 9.28324C2.62568 9.21793 2.61031 9.15263 2.6902 9.21793C2.66869 9.23278 2.67792 9.28027 2.68406 9.3248C2.79162 9.40495 2.89917 9.48213 3.00672 9.56228C3.4523 9.88287 3.96242 10.15 4.45409 10.4023C4.72451 10.5448 5.01951 10.6547 5.28071 10.815C5.48967 10.9426 5.57879 11.0673 5.62489 11.3315C5.65255 11.5838 5.79083 11.8569 5.92297 12.1033C5.99365 12.219 5.92911 12.3912 6.09812 12.4684C5.9076 12.3704 5.73552 12.2369 5.60645 12.0855C5.60031 12.1122 5.59415 12.13 5.55113 12.1033C5.53269 12.0795 5.54192 12.0498 5.56343 12.032C5.54806 12.0142 4.10377 10.7526 3.96548 10.6665C3.7934 10.5597 3.62131 10.4439 3.44923 10.3311C3.44308 10.3549 3.4185 10.3608 3.35704 10.3341C3.35397 10.3222 3.35397 10.2985 3.35397 10.2717C3.07125 10.0907 2.77625 9.92443 2.44437 9.82944C2.19239 9.77007 1.96192 9.74632 1.71608 9.71367C1.50712 9.68398 1.29816 9.68101 1.09227 9.68398C1.12607 9.77303 1.11378 9.86506 1.03081 9.97192C0.969347 9.88287 0.947841 9.79085 0.997008 9.68695C0.837214 9.68992 0.680484 9.69289 0.517617 9.68695C0.471523 9.68695 0.422358 9.68101 0.376264 9.67805C0.339388 9.69882 0.30251 9.70476 0.287145 9.67805C0.237978 9.68101 0.188813 9.68992 0.136573 9.71367C0.0013627 9.77304 -0.0355087 9.86506 0.0351694 9.98082C0.207255 10.2747 0.357825 10.6042 0.557567 10.8921C0.603662 10.9693 0.652829 11.0435 0.720434 11.0881C0.806477 11.1415 1.4641 11.851 1.67921 12.0053C1.69764 12.0172 2.11863 12.2992 2.2477 12.4001C2.37676 12.501 2.53349 12.599 2.71172 12.6613C3.02823 12.786 3.34167 12.9315 3.66126 13.0561C3.63668 12.9463 3.80262 12.9433 3.87637 12.8691C3.96856 13.0146 3.8272 13.0265 3.72887 13.0829C3.93476 13.16 4.14064 13.2253 4.35882 13.2699C4.54627 13.5044 4.8382 13.54 5.09941 13.6291C5.37597 13.727 5.67098 13.8368 5.95677 13.92C6.26099 14.012 6.4423 14.2198 6.60209 14.4573C6.68813 14.579 6.77417 14.7007 6.851 14.8402C7.08762 14.5908 6.86329 15.2439 6.71271 15.0183C6.42385 15.1103 6.74344 14.9945 6.8387 14.8521C6.84178 14.8491 6.84485 14.8461 6.84792 14.8402C6.66355 14.6799 6.49147 14.5048 6.30709 14.3445C5.99365 14.0803 5.66176 13.8784 5.25921 13.7478C5.11478 13.7033 4.76138 13.6083 4.37112 13.5044C4.32195 13.5845 4.14679 13.6914 4.19903 13.4717C4.20825 13.4688 4.2144 13.4658 4.22362 13.4628C3.61825 13.3055 2.97599 13.1393 2.8961 13.1155C2.60724 13.0324 2.28764 13.0027 1.96806 12.9701C1.76831 12.9404 1.63311 13.3292 1.7591 13.5489C1.87894 13.7389 2.05718 13.8725 2.10942 14.0921C2.11557 14.1189 2.16166 14.1248 2.15551 14.1693C2.09405 14.4127 2.30608 14.4958 2.4413 14.6265C2.48124 14.674 2.55807 14.674 2.53656 14.7778C2.53656 14.7778 2.56421 14.9589 2.66869 14.8342C2.68098 14.8164 2.73937 14.8758 2.74552 14.9055C2.74244 15.0213 2.82849 15.0747 2.92375 15.1548C3.21568 15.3804 3.55678 15.5675 3.89173 15.7248C4.12835 15.8465 4.39877 15.9177 4.63232 16.084C4.86586 16.2502 5.10863 16.3986 5.35139 16.547C5.77239 16.7578 6.22411 16.9656 6.71579 17.0309C6.82334 17.0517 6.93397 17.0695 7.05996 17.1021C7.08761 17.1111 7.1122 17.1229 7.13986 17.1348C7.146 17.1318 7.15215 17.1318 7.1583 17.1289C7.35804 17.1318 7.29043 17.1585 7.19517 17.1734C7.23204 17.209 7.24741 17.2595 7.21976 17.3396C7.16752 17.494 7.3396 17.5296 7.41335 17.5296C7.61924 17.586 7.68377 17.6721 7.67763 17.9036C7.65612 18.2687 7.9419 18.4676 8.32295 18.3697C8.46431 18.34 8.61795 18.2925 8.73165 18.1945C8.85457 18.0817 8.8853 18.147 8.94983 18.2331C9.32473 18.6992 9.59515 19.2187 9.90245 19.7144C9.97313 19.8302 10.0899 19.8747 10.1698 19.9726C10.2097 20.0201 10.2958 20.0023 10.3573 19.9459C10.4402 19.8569 10.4709 19.7352 10.4126 19.6016C10.2866 19.3849 10.1698 19.1919 10.0346 18.993C9.8287 18.6784 9.62588 18.3905 9.41999 18.0728C9.33088 17.9482 9.3401 17.8591 9.46302 17.7463C9.6474 17.5771 9.9086 17.4762 10.0592 17.2862C10.1483 17.1526 10.3296 17.0992 10.4187 16.9626C10.474 16.8795 10.6123 16.8914 10.7045 16.7845C10.8397 16.6539 11.3928 15.6268 11.4297 15.5318C11.4881 15.4042 11.8876 14.4009 12.1303 14.1574C12.3301 13.9586 12.6773 13.5994 12.748 13.4183C12.8371 13.1897 12.8679 12.973 12.8955 12.8958C12.9539 12.697 12.9785 12.4743 13 12.2547C13 11.9934 12.7327 11.8064 12.4714 11.9044ZM10.6062 9.30996C10.9411 9.12294 10.5724 9.78194 10.6062 9.30996V9.30996ZM10.6338 10.3044C11.0917 10.1352 10.5478 10.6665 10.6338 10.3044V10.3044ZM10.3849 11.1474C10.8213 11.1504 9.96698 11.2751 10.3849 11.1474V11.1474ZM9.25712 10.3816C9.26634 10.3786 9.31244 10.2955 9.31859 10.2985C9.78261 10.5241 8.51039 10.5419 9.25712 10.3816ZM8.56264 10.7764C8.89452 10.5923 8.52884 11.2484 8.56264 10.7764V10.7764ZM8.35367 11.3938C8.68863 11.2098 8.31987 11.8658 8.35367 11.3938V11.3938ZM8.44279 12.0261C8.90066 11.8539 8.35982 12.3853 8.44279 12.0261V12.0261ZM7.74216 12.1894C8.20003 12.0202 7.65919 12.5515 7.74216 12.1894V12.1894ZM10.2528 4.60199C10.4433 4.42091 10.5877 4.83353 10.3818 4.9493C10.2927 4.83946 10.3603 4.70588 10.2528 4.60199ZM9.13728 6.05653C9.45073 6.19901 9.09119 6.82536 9.13728 6.05653V6.05653ZM8.09554 5.69438C8.15086 5.73594 8.20925 5.77453 8.26456 5.81608C8.22154 5.86952 8.18159 5.92592 8.13857 5.97935C8.08018 5.93779 8.02487 5.8992 7.96955 5.85764C8.01257 5.80421 8.0556 5.74781 8.09554 5.69438ZM8.66405 7.54076C8.578 7.62684 8.45508 7.4992 8.34445 7.43983C8.43357 7.35374 8.55342 7.48139 8.66405 7.54076ZM10.5508 1.68994C10.6277 1.77602 10.4832 1.89476 10.5939 1.97491C10.3634 1.95116 10.1391 1.966 9.89323 1.85617C10.0838 1.6276 10.3665 1.97491 10.5508 1.68994ZM6.74344 3.04652C6.61438 3.13854 6.67584 2.98418 6.57443 2.92481C6.67277 2.83576 6.8049 2.9634 6.74344 3.04652ZM6.35932 2.51813C6.36854 2.51516 6.41463 2.43205 6.42385 2.43502C6.8848 2.65765 5.61259 2.67546 6.35932 2.51813ZM5.99672 1.7879C6.25484 1.49996 6.02437 2.1827 5.87072 1.95413C5.57879 2.04615 5.90145 1.93038 5.99672 1.7879ZM5.82771 2.17973C5.99979 2.00162 5.98443 2.43799 6.10427 2.50626C5.83078 2.69921 5.95062 2.248 5.82771 2.17973ZM6.49761 3.54819C6.36855 3.64021 6.43 3.48585 6.32859 3.42648C6.42693 3.33743 6.55907 3.4621 6.49761 3.54819ZM6.45152 3.60162C6.90939 3.43242 6.36547 3.96377 6.45152 3.60162V3.60162ZM8.02794 7.3389C7.9419 7.42499 7.81898 7.29735 7.70836 7.23798C7.7944 7.15189 7.91731 7.2825 8.02794 7.3389ZM6.30709 4.07657C6.74345 4.07954 5.88916 4.20421 6.30709 4.07657V4.07657ZM6.69735 5.17787C6.77417 5.2877 6.79261 5.40941 6.67891 5.54596C6.60209 5.43316 6.58365 5.31442 6.69735 5.17787ZM6.46688 5.93185C6.79876 5.74781 6.43308 6.40384 6.46688 5.93185V5.93185ZM6.63896 6.56414C6.66355 6.56117 6.93704 6.53445 6.95855 6.66506C6.97085 6.73631 6.14114 6.63538 6.63896 6.56414ZM5.60952 4.46841C5.36368 4.6762 5.48661 4.26062 5.26842 4.22499C5.43744 4.03204 5.57572 4.40904 5.60952 4.46841ZM6.69735 8.0454C6.52219 8.14632 6.53449 7.94744 6.4423 7.86432C6.61438 7.76042 6.60516 7.96228 6.69735 8.0454ZM6.44537 8.43426C6.77725 8.25022 6.41156 8.90625 6.44537 8.43426V8.43426ZM4.57393 4.67917C4.48482 4.76525 4.36497 4.63761 4.25434 4.57824C4.34038 4.49216 4.46331 4.6198 4.57393 4.67917ZM2.96985 3.15635C3.40928 3.15932 2.555 3.284 2.96985 3.15635V3.15635ZM4.32502 5.46284C4.6569 5.27879 4.29122 5.93482 4.32502 5.46284V5.46284ZM5.70478 8.54113C5.57572 8.63315 5.63718 8.47879 5.53577 8.41942C5.63411 8.33333 5.76624 8.45801 5.70478 8.54113ZM4.03924 7.38046C3.91018 7.47248 3.97164 7.31812 3.86715 7.25875C3.96856 7.17267 4.1007 7.29734 4.03924 7.38046ZM1.09227 7.10143C0.843359 7.0658 0.843357 7.06284 1.07076 6.95894C1.27972 7.04206 1.00623 7.41014 1.09227 7.10143ZM2.24155 7.6684C1.82978 7.79011 2.00801 7.14892 2.24155 7.6684V7.6684ZM2.4413 12.225C2.88073 12.1003 2.32452 12.7979 2.4413 12.225V12.225ZM2.19853 10.6517C1.70685 10.7704 2.10019 10.1946 2.19853 10.6517V10.6517ZM2.58572 10.8981C2.36447 10.6161 2.80698 10.8031 2.85922 10.7111C3.07126 10.9337 2.62875 10.7467 2.58572 10.8981ZM4.38033 12.6881C4.46945 12.602 4.5893 12.7296 4.69992 12.789C4.61081 12.8751 4.48789 12.7474 4.38033 12.6881ZM4.75524 12.4773C4.62617 12.5693 4.68763 12.415 4.58623 12.3556C4.68456 12.2665 4.81669 12.3912 4.75524 12.4773ZM2.7363 14.3177C3.17573 14.3237 2.32145 14.4483 2.7363 14.3177V14.3177ZM3.54449 14.6413C4.00236 14.4691 3.46152 15.0005 3.54449 14.6413V14.6413ZM5.60338 14.7066C6.06125 14.5374 5.51733 15.0688 5.60338 14.7066V14.7066ZM5.61874 14.2791C5.95369 14.0951 5.58801 14.7511 5.61874 14.2791V14.2791ZM7.33346 16.5797C7.20439 16.6717 7.26585 16.5174 7.16444 16.458C7.26277 16.3689 7.39799 16.4966 7.33346 16.5797ZM6.94318 15.5378C6.66662 15.7307 6.78646 15.2795 6.66662 15.2112C6.83871 15.0331 6.82334 15.4695 6.94318 15.5378ZM10.6154 16.5292C11.0548 16.5352 10.2005 16.6598 10.6154 16.5292V16.5292ZM10.7998 12.501C10.8919 12.2843 11.0517 12.501 11.1593 12.3764C11.3314 12.4595 10.9227 12.6999 10.7998 12.501ZM12.2195 12.3704C12.115 12.2012 12.3209 12.2131 12.4069 12.124C12.5145 12.2903 12.3055 12.2814 12.2195 12.3704Z" fill="#2C2C2C"/>
</svg>
