<svg width="65" height="78" viewBox="0 0 65 78" fill="none" xmlns="http://www.w3.org/2000/svg">
<path fill-rule="evenodd" clip-rule="evenodd" d="M39.9034 40.88C38.6829 39.7472 36.649 40.1119 35.505 40.3201C33.7919 40.6283 33.8364 41.0763 32.3988 41.163C31.8471 41.1945 31.2412 41.1661 30.6848 41.5817C30.246 41.9063 30.2725 42.1839 29.7871 42.4228C29.2637 42.6835 28.9381 42.5005 28.5183 42.8142C28.2254 43.0334 28.128 43.3129 28.0329 43.5043C27.9734 43.625 27.9074 43.7271 27.8338 43.8195C28.0456 44.3418 28.6269 44.6326 29.107 44.99C28.2919 45.6337 28.0466 43.9174 26.9746 44.4974C26.9926 44.4599 27.0182 44.4322 27.0395 44.4039C26.6189 44.6202 26.0993 44.8504 25.453 45.3475C24.449 46.122 23.8175 47.0235 23.3692 47.6652C23.2449 47.844 23.1358 48.007 23.0359 48.1668C23.0729 48.1538 23.1105 48.1365 23.1518 48.1241C23.7002 48.5344 23.0837 48.624 22.8182 48.5239C22.7511 48.6348 22.6932 48.7424 22.6414 48.8375C22.5538 48.2072 22.4909 47.2792 22.6832 46.1847C22.908 44.9041 23.3694 44.0207 23.8832 43.0379C24.5903 41.6816 25.3426 40.7336 25.7377 40.2664C26.5389 39.3157 27.0278 38.7367 27.8878 38.1915C29.2338 37.3324 29.8593 37.5889 31.0269 36.5699C31.1663 36.4461 31.2769 36.3408 31.3777 36.243C31.3784 36.1679 31.4206 36.045 31.3502 35.9388C31.4649 35.9047 31.5556 35.9561 31.6032 36.0329C31.753 35.8971 31.9136 35.7805 32.1562 35.6787C32.9265 35.3521 33.3867 35.623 33.9883 35.1644C34.1452 35.0429 34.332 34.8588 34.6927 34.6968C34.9365 34.5863 35.0615 34.5757 35.2692 34.5048C35.7446 34.3442 36.0442 34.0727 36.2626 33.8838C36.8855 33.3616 37.4977 33.0282 38.1122 32.642C38.0003 32.6189 37.3655 31.5341 38.0175 32.2761C38.1093 32.4913 38.1357 32.5964 38.1313 32.6312C38.7605 32.2336 39.3925 31.7789 40.0439 30.9993C40.8729 30.0036 41.2115 29.1134 41.6289 27.9856C42.1393 26.6132 42.1071 25.9987 41.893 25.5292C41.8303 25.3973 41.5795 24.8347 41.0841 24.7362C40.7913 24.6768 40.528 24.8025 40.3408 24.9202C39.2212 25.5959 39.3457 26.9431 38.2331 27.6683C37.5728 28.1018 36.9007 28.2816 35.5564 28.6412C34.372 28.9592 33.4614 29.0689 33.1211 29.1052C32.1677 29.205 31.6926 29.2595 31.2335 29.1878C30.6962 29.1061 30.2966 28.9491 29.7257 29.0975C29.3379 29.1941 29.3039 29.3225 28.9705 29.4437C28.16 29.7386 27.6569 29.2499 26.598 29.1372C26.5502 29.1312 26.4611 29.1375 26.3404 29.1487C26.0926 29.8115 24.8211 29.7381 25.7011 29.2442C25.3629 29.2985 24.9383 29.3727 24.3919 29.4668C22.6168 29.7759 22.3181 29.9016 22.0219 30.1469C21.7893 30.3429 21.6252 30.5564 21.2313 30.7363C20.7901 30.9411 20.6262 30.8406 20.1275 30.9761C19.8899 31.0388 19.0704 31.2308 18.5786 31.9024C18.3382 32.23 18.2684 32.5352 17.9602 32.7702C18.0439 32.772 18.1307 32.8184 18.2244 32.9497C18.5578 33.7308 17.567 33.1182 17.666 33.7279C17.4328 33.7557 17.5201 33.1741 17.7354 32.9052C17.4825 33.0189 17.3255 32.968 17.0039 33.1703C16.8504 33.2658 16.7496 33.3635 16.3605 33.8182C15.9817 34.2609 15.7898 34.4842 15.6513 34.67C15.3804 35.0291 15.0221 35.5187 14.6911 36.2108C14.5223 36.5652 14.3233 37.053 14.1751 37.6622C13.6843 36.7991 13.1232 35.5512 12.8695 33.9709C12.7298 33.0906 12.5272 31.7335 12.985 30.0801C13.0519 29.8321 13.1345 29.5994 13.2155 29.3797C13.1669 29.2408 13.2477 29.0919 13.3451 29.0556C13.5888 28.494 13.8221 28.2229 13.6914 28.1045C13.4338 27.8727 13.0976 28.7101 12.4517 29.4815C11.8576 30.1931 11.4377 30.7854 10.6153 31.9368C9.73301 33.1779 9.29184 33.7985 8.92354 34.4018C8.07128 35.7882 7.51628 36.956 7.27974 37.4611C7.10983 37.8242 7.20976 37.6291 6.7229 38.7126C6.32293 39.5994 6.22079 39.8119 6.13781 40.1862C6.00208 40.8014 6.14431 40.8637 6.056 41.4186C5.91412 42.3249 5.50872 42.3176 5.0646 43.4817C4.93991 43.802 4.81193 44.3563 4.55542 45.4692C4.4961 45.727 4.5252 45.6024 4.32904 46.4842C3.92682 48.2906 3.89512 48.3662 3.92327 48.6307C3.98282 49.169 4.16817 49.3784 4.04045 49.8265C3.94563 50.155 3.80971 50.182 3.64147 50.5321C3.44374 50.9404 3.50185 51.1777 3.46318 52.1061C3.44475 52.5283 3.44553 52.21 3.3289 53.6812C3.30076 54.0757 3.27446 54.3864 3.26082 54.6323C3.26231 54.69 3.26324 54.7521 3.26252 54.8272C3.25817 54.8266 3.25383 54.8261 3.24948 54.8255C3.23694 55.0627 3.23549 55.2129 3.2478 55.2897C3.35648 55.9625 3.60851 56.2379 3.4202 56.5722C3.30668 56.77 3.10206 56.8855 3.00337 57.2445C2.97703 57.3473 2.95938 57.4512 2.95912 57.5573C2.95225 57.9235 2.94926 58.2593 2.94256 58.5548C2.93641 58.8459 2.9102 59.1212 2.87261 59.3818C2.86518 59.7524 2.89291 60.1938 2.95523 60.7104C3.017 61.2313 3.23438 61.6747 3.59268 62.052C3.5379 62.8987 3.73307 63.7595 4.17384 64.6338C4.61462 65.5082 5.10559 66.3005 5.64187 67.0145L5.69662 67.0701C5.7313 67.1099 5.73556 67.1458 5.69581 67.1806C5.87523 67.3671 6.03395 67.5775 6.17797 67.7993C6.32633 68.0216 6.50077 68.2473 6.71923 68.4741C7.55113 69.1904 8.3132 69.796 9.00164 70.2862C9.68953 70.7806 10.438 71.1811 11.2377 71.4908C12.4054 72.0331 13.675 72.3982 15.0549 72.5915C16.4305 72.7843 17.6768 72.7086 18.7858 72.3588L19.117 72.255L19.5629 72.1526C19.9338 72.014 20.4278 71.8115 21.0355 71.5483C21.2128 71.4736 21.3962 71.3864 21.5839 71.2997C21.54 71.2278 21.5016 71.1477 21.4567 71.0845C21.5818 71.0385 21.6696 71.1116 21.7438 71.2227C22.1486 71.0266 22.5741 70.8065 23.0204 70.5626C23.6712 70.2031 24.377 69.8286 25.1979 69.2785C26.096 68.6763 26.6659 68.2933 27.1569 67.7676C27.5906 67.3097 27.9076 66.7972 28.148 66.2617C28.0307 66.2114 27.9188 66.1883 27.8469 66.2676C27.7492 65.7863 27.9977 65.9506 28.2283 66.0817C28.7898 64.7246 28.8701 63.2266 28.9355 62.0186C29.0095 60.6392 28.8104 60.9544 28.8522 59.2038C28.8948 57.3428 28.9339 55.5432 29.7714 53.5445C29.8539 53.3471 29.9489 53.1558 30.0396 52.9639C29.9805 52.9077 30.0853 52.7441 29.9894 52.5948C30.077 52.5661 30.1487 52.593 30.2002 52.6393C30.5284 52.0044 30.9016 51.3973 31.284 50.787C31.2905 50.5976 31.3778 50.4318 31.5884 50.3038C31.8809 49.8457 32.122 49.4783 32.4566 49.0698C33.3631 47.9512 33.9267 47.7222 34.9 46.8421C36.7371 45.1785 36.4891 44.3862 38.0463 43.1868C39.0209 42.4351 39.9896 42.0763 40.6004 41.8931C40.4761 41.6208 40.2792 41.2242 39.9034 40.88ZM31.4192 31.7192C32.3267 32.3965 30.0545 32.2045 31.4192 31.7192V31.7192ZM31.768 30.1935C32.4982 30.4943 31.5151 31.382 30.9493 30.9694C31.1475 30.5922 31.5952 30.6138 31.768 30.1935ZM27.487 36.274C27.8508 36.4353 27.6528 36.9497 27.3475 36.8843C26.9362 36.6462 27.4384 36.6217 27.487 36.274ZM10.5255 33.3363C11.4331 34.0136 9.16516 33.8222 10.5255 33.3363V33.3363ZM12.4933 33.1445C13.4008 33.8218 11.1329 33.6304 12.4933 33.1445V33.1445ZM10.2968 41.3083C11.0093 41.2973 10.5984 41.9924 11.0714 42.1279C11.0341 42.6981 9.88403 41.8794 10.2968 41.3083ZM8.7411 59.2531C8.39579 59.1207 8.61163 58.6396 8.64569 58.268C8.991 58.4004 8.77461 58.8859 8.7411 59.2531ZM8.85158 53.1812C8.44023 52.9431 8.94678 52.9191 8.99111 52.571C9.35917 52.7328 9.16119 53.2472 8.85158 53.1812ZM8.16039 63.6066C8.66235 64.7983 7.30791 62.6356 8.16039 63.6066V63.6066ZM8.153 60.4034C8.37339 60.06 8.68526 59.8652 9.20664 60.0024C8.99004 60.3508 8.67438 60.5406 8.153 60.4034ZM9.93088 54.0705C9.51952 53.8324 10.0217 53.8079 10.0704 53.4603C10.4385 53.6221 10.2405 54.1365 9.93088 54.0705ZM24.8447 35.659C25.2084 35.8203 25.0147 36.3353 24.7051 36.2693C24.2938 36.0312 24.796 36.0067 24.8447 35.659ZM22.8134 44.5028C23.1771 44.6641 22.9835 45.1791 22.6739 45.1131C22.2582 44.8744 22.7647 44.8505 22.8134 44.5028ZM19.1942 38.8628C19.5395 38.9952 19.3237 39.4764 19.2896 39.848C18.9443 39.7156 19.1607 39.2301 19.1942 38.8628ZM16.7759 58.2061C17.2778 59.3978 15.9234 57.2351 16.7759 58.2061V58.2061ZM19.0077 36.893C19.9152 37.5702 17.643 37.3783 19.0077 36.893V36.893ZM18.3103 38.9714C19.4229 39.321 17.2416 39.5254 17.7009 38.8319C17.102 38.1586 17.8089 38.8855 18.3103 38.9714ZM14.2975 63.4148C14.6428 63.5472 14.427 64.0284 14.3929 64.4C14.0476 64.2676 14.2634 63.7864 14.2975 63.4148ZM14.2118 47.99C15.1194 48.6672 12.8515 48.4758 14.2118 47.99V47.99ZM13.6007 38.5311C14.1027 39.7229 12.7526 37.5607 13.6007 38.5311V38.5311ZM12.3366 44.9913C12.6862 44.5007 12.9 45.0763 13.2507 45.2006C12.9055 45.6918 12.6874 45.1156 12.3366 44.9913ZM13.5783 42.3851C14.5909 43.4163 12.4648 42.5971 13.5783 42.3851V42.3851ZM13.0913 52.8718C13.3116 52.5283 13.6235 52.3336 14.1449 52.4707C13.9245 52.8142 13.6126 53.0089 13.0913 52.8718ZM13.8189 51.1112C14.1684 50.6205 14.3822 51.1962 14.733 51.3204C14.3835 51.8111 14.1653 51.2349 13.8189 51.1112ZM16.2471 38.178C17.2641 39.2098 15.1379 38.3907 16.2471 38.178V38.178ZM12.8243 69.8175C13.4354 69.0416 13.4181 70.8086 14.2083 70.7765C13.3136 71.733 13.3648 69.9437 12.8243 69.8175ZM14.4427 71.1558C14.6631 70.8123 14.975 70.6176 15.4964 70.7547C15.2803 71.0987 14.9641 71.2929 14.4427 71.1558ZM18.5469 48.6657C18.2016 48.5333 18.4174 48.0521 18.4515 47.6805C18.7968 47.8129 18.5804 48.2984 18.5469 48.6657ZM19.2227 44.3288C19.7246 45.5205 18.3708 43.3534 19.2227 44.3288V44.3288ZM18.5939 51.2458C18.8439 51.0167 19.0852 50.7865 18.7334 50.6355C19.519 49.5988 19.0804 51.4139 19.508 51.4551C19.2727 51.8807 19.146 51.2453 18.5939 51.2458ZM20.6251 42.402C21.1271 43.5938 19.7727 41.431 20.6251 42.402V42.402ZM20.7519 53.0288C21.2495 54.22 19.9 52.0534 20.7519 53.0288V53.0288ZM20.7989 55.6089C21.8115 56.6401 19.6897 55.8215 20.7989 55.6089V55.6089ZM20.9942 56.6068C21.4918 57.798 20.1418 55.6358 20.9942 56.6068V56.6068ZM19.6193 68.1703C20.632 69.2015 18.5058 68.3823 19.6193 68.1703V68.1703ZM19.8241 68.2273C19.4127 67.9892 19.9149 67.9646 19.9636 67.617C20.3316 67.7788 20.1337 68.2932 19.8241 68.2273ZM24.899 55.9097C25.9116 56.9409 23.7855 56.1218 24.899 55.9097V55.9097ZM24.3667 58.6682C25.2754 58.2266 23.6148 59.2669 23.2433 59.3744C22.2947 58.6035 24.1076 58.8652 24.3667 58.6682ZM23.0257 61.2574C24.0427 62.2892 21.9165 61.47 23.0257 61.2574V61.2574ZM22.7014 54.7498C23.2028 55.9459 21.8489 53.7788 22.7014 54.7498V54.7498ZM21.5168 68.288C21.1054 68.0498 21.6076 68.0253 21.6563 67.6777C22.02 67.839 21.822 68.3534 21.5168 68.288ZM22.5448 66.5966C22.5637 66.6211 22.8522 66.6446 22.8495 66.6663C22.7702 68.191 21.2226 64.7697 22.5448 66.5966ZM22.2802 65.8995C21.4135 65.3867 22.8151 65.167 22.8639 64.7486C23.5649 65.0015 22.3285 65.4854 22.2802 65.8995ZM23.5469 64.5879C22.948 63.9146 23.6506 64.6409 24.1563 64.7274C25.269 65.0769 23.0833 65.2808 23.5469 64.5879ZM25.3176 54.0788C25.6671 53.5882 25.8809 54.1638 26.2317 54.2881C25.8865 54.7793 25.6683 54.2031 25.3176 54.0788ZM27.3323 56.4672C26.987 56.3348 27.2028 55.8536 27.2369 55.482C27.5865 55.615 27.3707 56.0961 27.3323 56.4672ZM28.5338 54.4883C29.5465 55.5195 27.4203 54.7004 28.5338 54.4883V54.4883ZM30.1382 48.4429C30.6687 47.502 30.6647 48.9213 30.9825 48.9573C30.6098 49.8033 30.6144 48.3797 30.1382 48.4429ZM32.8148 48.4077C32.1368 48.0781 32.9597 46.9223 33.259 47.8672C33.1448 48.1047 32.8845 48.1025 32.8148 48.4077Z" fill="#2C2C2C"/>
<path fill-rule="evenodd" clip-rule="evenodd" d="M47.1367 26.2231C47.5758 25.7925 48.1446 25.1749 48.7167 24.3587C49.7911 22.8236 50.2618 21.4505 50.5749 20.5173C51.2242 18.5743 51.3765 16.9616 51.4236 16.1405C51.4384 15.8859 51.4625 15.3493 51.4418 14.6788C51.3328 11.2681 50.4849 9.9837 50.4849 9.9837C50.4849 9.9837 50.3725 10.1728 50.3681 11.2825C50.366 11.7156 49.929 11.9563 49.9304 12.5005C49.9323 12.8325 50.0329 13.0488 49.9661 13.4693C49.9186 13.7728 49.8159 13.9898 49.752 14.1099C49.7726 14.1214 49.7938 14.1285 49.8139 14.1443C49.858 14.318 49.7241 14.4336 49.8236 14.6232C49.7045 14.6567 49.6073 14.6222 49.5401 14.5606C49.3324 15.0118 48.9254 15.9198 48.1667 17.6808C47.6852 18.7916 47.5337 19.6702 47.3127 20.9203C46.9065 23.2437 47.0239 24.9924 47.0656 25.4975C47.0888 25.8012 47.1186 26.0527 47.1367 26.2231ZM50.3069 19.6738C51.2903 19.7548 49.8277 20.2807 50.3069 19.6738V19.6738ZM49.096 20.3733C49.5979 21.565 48.2435 19.4023 49.096 20.3733V20.3733ZM47.4058 22.4094C48.195 22.8018 46.5295 22.2846 47.4058 22.4094V22.4094ZM47.3456 24.1311C48.1348 24.5235 46.4693 24.0063 47.3456 24.1311V24.1311Z" fill="#2C2C2C"/>
<path fill-rule="evenodd" clip-rule="evenodd" d="M55.6814 19.814C55.6182 19.6512 55.4783 19.5361 55.3213 19.5205C55.1072 19.5021 54.9655 19.6787 54.9442 19.7069C54.8019 19.8878 54.8209 20.1202 54.823 20.1736C54.86 20.8196 54.3164 23.3201 53.4872 24.8378C53.1072 25.5325 53.1304 25.1772 52.0228 26.7302C50.8619 28.356 51.0213 28.4913 50.4155 29.1218C49.5813 29.9842 49.1354 29.8788 47.3262 31.0108C47.3441 31.044 47.3663 31.0778 47.389 31.1072C47.3194 31.1337 47.264 31.1178 47.2108 31.0845C46.1582 31.7555 46.3243 31.8032 45.001 32.6918C44.5759 32.9783 44.1633 33.2353 43.7709 33.4729C43.784 33.4745 43.7927 33.4756 43.81 33.4779C44.2834 33.715 43.8798 33.6238 43.661 33.5385C42.4713 34.2451 41.4745 34.7197 40.8162 35.034C39.8249 35.5004 38.9675 35.8513 38.3219 36.1008C38.2419 36.1393 38.0808 36.2249 38.038 36.3875C37.9591 36.6606 38.2594 36.973 38.5308 37.096C38.8609 37.2442 39.1194 37.0869 39.5527 37.0138C40.2883 36.8907 40.6208 37.1586 41.2613 37.2269C42.2073 37.3252 42.9349 36.8827 43.553 36.5722C45.9086 35.3815 46.9085 35.8184 49.1883 34.7021C49.2258 34.6848 49.259 34.6669 49.2928 34.6447C49.175 34.5987 49.068 34.5718 48.9874 34.6146C48.9689 34.2054 49.2467 34.3823 49.5578 34.5059C52.3499 33.0081 53.8706 30.7426 54.1226 30.3589C55.0996 28.8601 55.4571 27.0922 56.1771 23.5526C56.2993 22.9401 56.4739 21.9849 56.1467 20.8773C56.0044 20.3992 55.8124 20.0342 55.6814 19.814ZM51.7745 30.7278C52.7574 30.8132 51.291 31.3342 51.7745 30.7278V30.7278ZM52.5872 28.611C52.6084 28.6181 52.7647 28.5009 52.7766 28.5113C53.4137 29.3354 51.0915 28.2525 52.5872 28.611ZM52.8063 29.9436C52.4893 30.005 52.736 29.7666 52.6072 29.5645C52.8688 29.4872 52.9962 29.8396 52.8063 29.9436Z" fill="#2C2C2C"/>
<path fill-rule="evenodd" clip-rule="evenodd" d="M64.2951 6.96949C64.2149 6.87082 63.9508 6.86374 63.6862 6.86101C63.1525 6.85499 62.5792 6.84835 62.0258 6.92828C61.306 7.03125 61.4399 7.15888 60.5009 7.35336C59.6614 7.52956 59.4371 7.45236 58.9437 7.68587C58.652 7.82566 58.4832 7.97224 58.0442 8.3675C56.9015 9.39853 56.3324 9.91432 56.1655 10.1496C55.7031 10.7984 55.5 11.3873 55.2625 12.0736C55.0096 12.811 54.8798 13.4491 54.8075 13.9131C54.7157 14.1138 54.8113 14.3338 54.984 14.4C55.1273 14.4537 55.2934 14.3288 55.3957 14.2534C55.7627 13.9728 55.7592 13.6185 56.0022 13.132C56.0738 12.9863 56.0868 12.988 56.6593 12.2382C57.3964 11.2705 57.3321 11.3242 57.5147 11.1042C57.6766 10.9081 58.347 10.1177 59.4448 9.43923C59.9194 9.14581 60.279 8.99256 60.9933 8.68985C61.5678 8.44453 62.2298 8.17056 63.1378 7.97655C63.569 7.88548 63.9478 7.89389 64.192 7.81441C64.335 7.76628 64.4597 7.68926 64.5131 7.40857C64.5654 7.10121 64.3027 6.9793 64.2951 6.96949ZM61.5223 8.14241C61.3208 8.09464 61.1144 8.05067 60.9129 8.00291C60.9607 7.80111 61.0046 7.59441 61.0524 7.39261C61.2539 7.44038 61.4603 7.48435 61.6618 7.53211C61.6184 7.73446 61.5701 7.94061 61.5223 8.14241Z" fill="#2C2C2C"/>
</svg>
