<svg width="187" height="26" viewBox="0 0 187 26" fill="none" xmlns="http://www.w3.org/2000/svg">
<g clip-path="url(#clip0)">
<path d="M1.085 13.1349C0.627691 14.0519 0.287976 15.0228 0.118119 16.0342C-0.0517388 17.0456 -0.0386728 18.084 0.131185 19.0954C0.222646 19.6618 0.366372 20.2282 0.640757 20.7272C0.862878 21.1317 1.17646 21.4824 1.51618 21.7791C1.79056 22.0218 2.18254 22.1162 2.52226 22.1836C2.94037 22.2645 3.38461 22.1701 3.78965 22.0757C4.6912 21.8735 5.47516 21.388 6.19379 20.7946C6.83402 20.2687 7.39586 19.6214 7.86623 18.9336C8.11449 18.556 8.32354 18.1515 8.5326 17.7469C8.79392 17.2479 8.95071 16.7085 9.1075 16.1556C9.40802 15.0903 9.47335 13.9844 9.39495 12.8921C9.31655 11.7728 8.95071 10.7614 8.48033 9.77698C8.11449 8.99482 7.51345 8.361 6.79482 7.91598C6.23299 7.56536 5.56662 7.39005 4.93946 7.20125C4.26003 6.99897 3.5806 6.86411 2.87504 6.79668C2.61372 6.82366 2.41773 6.94502 2.274 7.18776C1.93429 7.63278 1.82976 8.29357 1.81669 8.83299C1.80363 9.25104 1.85589 9.66909 1.97348 10.0602C2.07801 10.3569 2.22174 10.6805 2.49612 10.8423C2.46999 10.8828 2.44386 10.9098 2.41773 10.9367C1.89509 11.611 1.46391 12.3662 1.085 13.1349ZM4.02484 12.7303C4.35149 12.4201 4.70427 12.1234 5.07012 11.8537C5.16158 11.7728 5.26611 11.7054 5.35757 11.638C5.59276 11.7324 5.80181 11.8403 6.02393 11.9616C6.29832 12.1234 6.5335 12.2988 6.74256 12.5145C6.93855 12.7708 7.09534 13.0539 7.23907 13.3371C7.3044 13.5125 7.36973 13.6743 7.42199 13.8496C7.42199 13.89 7.43506 13.9305 7.43506 13.971C7.43506 14.0519 7.43506 14.1328 7.42199 14.2002C7.39586 14.3216 7.38279 14.443 7.35666 14.5643C7.25213 14.8745 7.13454 15.1712 6.99081 15.4678C6.66416 16.0208 6.29832 16.5332 5.86714 17.0052C5.23997 17.5986 4.53441 18.0975 3.72432 18.3942C3.26701 18.5021 2.82277 18.556 2.36546 18.4616C2.18254 18.3672 2.02575 18.2459 1.88202 18.111C1.84283 18.0571 1.80363 17.9896 1.76443 17.9357C1.7383 17.8683 1.72523 17.8143 1.71217 17.7469C1.68603 17.5986 1.67297 17.4637 1.6599 17.3154C1.6599 17.194 1.6599 17.0591 1.67297 16.9378C1.6991 16.7625 1.7383 16.6006 1.7775 16.4253C1.93429 15.9533 2.11721 15.5083 2.32627 15.0633C2.79664 14.2407 3.35848 13.4315 4.02484 12.7303Z" fill="#F69618"/>
<path d="M19.1943 17.5042C18.8676 17.7469 18.6455 18.0706 18.5149 18.4751C18.2013 19.2303 18.136 20.1608 18.2535 20.9699C18.3581 21.6847 18.8415 23.3703 19.8868 22.7635C20.8145 22.2241 21.7683 21.7386 22.7221 21.2396C23.7282 20.7002 24.7343 20.1608 25.7403 19.6079C25.7534 19.6079 25.7534 19.5944 25.7665 19.5944C26.276 20.2552 26.7856 20.916 27.2821 21.5903C28.2229 22.8579 29.1636 24.112 30.0652 25.4067C30.2481 25.7573 30.5225 25.9461 30.9014 26.0135C31.5286 26.027 31.9075 25.3257 32.1035 24.8268C32.3125 24.2604 32.417 23.6805 32.4301 23.0737C32.417 22.7635 32.404 22.4398 32.3778 22.1297C32.3256 21.6037 32.1688 21.1048 31.9075 20.6463C31.1366 19.5944 30.3265 18.583 29.5295 17.5581C30.5486 17.0187 31.5678 16.4793 32.5738 15.9398C32.9397 15.6567 33.2141 15.2791 33.3578 14.834C33.7106 13.9575 33.789 12.8921 33.6583 11.9616C33.5538 11.2199 33.1487 9.79047 32.2864 9.7635C32.1296 9.7635 31.9597 9.80395 31.7768 9.89835C30.3918 10.6266 29.0068 11.3683 27.6218 12.11C27.0339 12.4201 26.4459 12.7303 25.871 13.054C25.466 12.5685 25.0478 12.083 24.6297 11.611C24.7212 11.7189 24.8127 11.8268 24.9172 11.9347C24.1724 11.0851 23.4277 10.222 22.5784 9.46682C21.703 8.69814 20.6185 8.10478 19.5079 7.79462C19.1551 7.82159 18.8938 7.9969 18.6978 8.30706C18.2535 8.90043 18.1098 9.79047 18.0837 10.5322C18.0576 11.0851 18.1229 11.6245 18.2927 12.1639C18.3842 12.3662 18.4757 12.5685 18.5671 12.7708C18.737 13.0944 18.9983 13.2832 19.338 13.3237C19.3772 13.3371 19.4033 13.3371 19.4425 13.3506C20.0697 13.6473 20.6707 13.9845 21.2195 14.416C21.5592 14.6722 21.8728 14.9689 22.1733 15.2791C22.1341 15.306 22.108 15.3195 22.0688 15.3465C21.0627 15.9938 20.0697 16.6681 19.1943 17.5042Z" fill="#F69618"/>
<path d="M59.3199 11.611C59.15 11.2604 58.9279 10.9502 58.6927 10.6535C58.2354 10.0602 57.6736 9.5612 57.0333 9.17012C56.7067 8.96784 56.3539 8.79253 56.0142 8.61722C55.4132 8.30705 54.7599 8.0778 54.1196 7.889C53.8452 7.91597 53.6362 8.03734 53.4925 8.28008C53.2834 8.60373 53.1527 8.94087 53.0874 9.31846C53.009 9.76348 52.996 10.222 53.0482 10.6805C53.0874 10.8828 53.1397 11.0716 53.1789 11.2739C53.2703 11.584 53.4271 11.8537 53.6623 12.056C53.7276 12.083 53.793 12.11 53.8583 12.1369C53.8452 12.1504 53.8322 12.1639 53.8191 12.1774C53.5709 12.4201 53.3487 12.6763 53.1397 12.9461C52.9306 13.2427 52.7608 13.5664 52.5778 13.89C52.408 14.2002 52.2381 14.5104 52.0552 14.8205C51.7678 15.333 51.5718 15.7915 51.428 16.3714C51.3104 16.8164 51.2712 17.2749 51.2451 17.7334C51.2451 18.0166 51.2582 18.2863 51.2712 18.5695C51.2974 18.8527 51.3627 19.2438 51.4542 19.4865C51.6371 19.972 51.8331 20.3361 52.1989 20.7002C52.4341 20.9429 52.6954 21.1183 52.996 21.2801C54.4332 22.0353 56.0403 21.4958 57.3339 20.7002C57.961 20.3226 58.5098 19.7832 59.0194 19.2573C59.6857 18.5425 60.0254 17.5985 60.1822 16.6276C60.3782 15.4004 60.2868 14.1463 59.8948 12.9595C59.7641 12.5145 59.542 12.056 59.3199 11.611ZM57.6605 15.5757C56.9811 16.2095 56.2102 16.7624 55.3478 17.0861C54.7729 17.221 54.198 17.2614 53.6231 17.0996C53.6101 17.0996 53.597 17.0861 53.5839 17.0861C53.6623 16.9378 53.7407 16.7894 53.8191 16.6411C54.0804 16.1691 54.3679 15.751 54.7207 15.36C54.9689 15.1307 55.2172 14.9284 55.5177 14.7801C55.6483 14.7666 55.7529 14.7801 55.8835 14.807C56.0926 14.9014 56.2886 14.9958 56.4846 15.1307C56.5891 15.1981 56.6936 15.2386 56.7851 15.2386C57.0595 15.2521 57.2816 14.9824 57.4253 14.6857C57.569 14.9014 57.6997 15.1307 57.8304 15.3734C57.7781 15.4544 57.7258 15.5083 57.6605 15.5757Z" fill="#F69618"/>
<path d="M90.0897 14.6453C90.3772 14.4295 90.5732 14.1463 90.6908 13.7957C90.9652 13.1214 91.0174 12.3123 90.9259 11.6111C90.8737 11.1795 90.7561 10.775 90.534 10.4108C90.4294 10.2895 90.3249 10.1816 90.2204 10.0602C90.1028 9.97931 89.9721 9.92537 89.8545 9.92537C89.7369 9.92537 89.6063 9.95234 89.4756 10.0333C86.6011 11.1391 83.7266 12.2584 80.839 13.3642C80.2511 12.7573 79.6631 12.1505 79.0621 11.5571C76.8539 9.33201 74.6588 7.09342 72.4768 4.84134C72.2939 4.70649 72.0979 4.63906 71.915 4.63906C71.719 4.63906 71.5361 4.693 71.3401 4.81437C70.6084 5.23242 70.2817 6.3652 70.1249 7.13387C69.9812 7.91603 69.9551 8.69819 70.0596 9.49383C70.138 9.83097 70.2164 10.1816 70.2817 10.5322C70.4255 11.0716 70.7129 11.5301 71.131 11.8942C72.3723 13.1754 73.6136 14.4565 74.8548 15.7376C73.6397 16.2366 72.4245 16.7625 71.2225 17.2884C70.8044 17.4772 70.3993 17.6795 70.0204 17.9223C69.746 18.1245 69.5631 18.3942 69.4455 18.7314C69.1842 19.3652 69.1319 20.1339 69.2234 20.8081C69.3148 21.442 69.7068 22.7905 70.5953 22.305C71.4185 21.86 72.32 21.5364 73.1824 21.1857C73.901 20.8891 74.6327 20.6059 75.3644 20.3227C76.3182 19.9451 77.2851 19.5675 78.2389 19.2034C79.8329 20.8216 81.4401 22.4399 83.1778 23.8828C83.5437 24.1391 83.9095 24.1525 84.2884 23.9233C85.0071 23.5187 85.3206 22.3994 85.4774 21.6577C85.6212 20.8891 85.6473 20.1204 85.5428 19.3517C85.4252 18.4617 85.1639 17.6256 84.4975 17.0052C84.4452 16.9513 84.393 16.8974 84.3407 16.8569C85.582 16.3849 86.8102 15.9129 88.0514 15.4274C88.7439 15.1712 89.4103 14.915 90.0897 14.6453Z" fill="#F69618"/>
<path d="M106.357 18.9876C107.455 19.1494 108.487 18.9471 109.545 18.6235C110.016 18.4751 110.421 18.1785 110.774 17.8278C111.048 17.5446 111.296 17.3019 111.505 16.9648C111.714 16.6276 111.91 16.2231 112.041 15.832C112.694 13.971 112.551 11.9482 111.989 10.0872C111.793 9.42638 111.518 8.80605 111.218 8.1992C110.917 7.59236 110.434 7.07991 109.937 6.64837C109.781 6.54049 109.624 6.47306 109.454 6.47306C109.297 6.47306 109.127 6.51352 108.957 6.6214C108.448 6.9046 108.174 7.60584 108.017 8.1992C107.141 8.49588 106.266 8.79256 105.443 9.23758C104.972 9.48032 104.541 9.777 104.136 10.1141C103.875 10.3299 103.613 10.5592 103.378 10.8289C103.117 11.1256 102.973 11.4762 102.79 11.8268C102.647 12.0965 102.503 12.6899 102.464 12.9056C102.359 13.5529 102.281 14.2407 102.385 14.9015C102.516 15.778 102.777 16.6276 103.3 17.3289C104.045 18.3133 105.181 18.8123 106.357 18.9876ZM109.153 12.9326C109.167 12.9461 109.193 12.9596 109.206 12.9731C109.284 13.0809 109.349 13.1753 109.415 13.2832C109.193 13.4316 108.944 13.5395 108.683 13.6339C108.043 13.7822 107.376 13.8496 106.736 13.7957C107.507 13.4451 108.343 13.2023 109.153 12.9326Z" fill="#F69618"/>
<path d="M128.739 17.7199C129.785 17.1535 130.856 16.6411 131.927 16.1016C132.463 15.8319 132.986 15.5622 133.508 15.2925C133.809 15.6971 134.109 16.1016 134.41 16.5062C135.978 18.5965 137.611 20.6193 139.218 22.6691C139.414 23.0332 139.702 23.2489 140.094 23.3029C140.747 23.3299 141.152 22.5747 141.361 22.0622C141.583 21.4689 141.701 20.8485 141.714 20.2147C141.74 19.3786 141.635 18.3807 141.165 17.666C140.146 16.1016 139.048 14.5913 137.938 13.0809C139.127 12.5415 140.303 12.0021 141.518 11.5031C141.792 11.2873 141.988 11.0176 142.106 10.667C142.367 10.0062 142.433 9.22405 142.328 8.5228C142.276 8.10475 142.158 7.71367 141.949 7.34956C141.845 7.22819 141.74 7.12031 141.649 6.99894C141.531 6.91803 141.413 6.86409 141.283 6.86409C141.165 6.86409 141.034 6.89106 140.917 6.97197C139.584 7.51139 138.278 8.11824 136.958 8.69811C136.396 8.95434 135.847 9.22405 135.285 9.50724C133.809 7.4979 132.346 5.4616 130.908 3.42529C130.699 3.03421 130.386 2.80496 129.968 2.75102C129.262 2.72404 128.844 3.53317 128.622 4.08608C128.387 4.7199 128.269 5.38068 128.256 6.05496C128.269 6.40558 128.295 6.7562 128.308 7.12031C128.374 7.71367 128.556 8.26658 128.844 8.77903C129.549 9.77695 130.255 10.7614 130.961 11.7593C130.007 12.2987 129.053 12.8382 128.191 13.5124C127.433 14.1058 127.315 15.3599 127.433 16.2635C127.524 16.8973 127.903 18.1784 128.739 17.7199Z" fill="#F69618"/>
<path d="M155.015 18.61C155.315 18.9201 155.616 19.1494 156.008 19.3112C156.373 19.473 156.752 19.5809 157.144 19.5809C157.34 19.5809 157.536 19.5135 157.719 19.473C157.967 19.4056 158.216 19.3247 158.451 19.2303C158.843 19.082 159.196 18.8257 159.522 18.5695C159.757 18.3807 159.953 18.1515 160.163 17.9357C160.385 17.7064 160.528 17.3558 160.672 17.0861C161.234 15.9938 161.443 14.6587 161.312 13.4315C161.182 12.2988 160.751 11.2739 160.071 10.3703C159.927 10.1141 159.718 9.95229 159.444 9.91184C159.3 9.91184 159.183 9.95229 159.078 10.0197C158.921 9.64213 158.686 9.30499 158.333 9.2915C158.229 9.2915 158.111 9.31847 157.994 9.37242C157.667 9.53424 157.34 9.69607 157.014 9.85789C156.609 10.0737 156.256 10.3569 155.929 10.667C155.55 11.0176 155.211 11.3952 154.91 11.8133C154.623 12.1909 154.296 12.5954 154.126 13.054C153.656 14.3351 153.669 15.7645 154.074 17.0591C154.257 17.666 154.61 18.1649 155.015 18.61ZM156.622 14.6992C156.857 14.4834 157.105 14.2946 157.366 14.1193C157.706 13.9035 158.098 13.7282 158.464 13.5529C158.516 13.7013 158.582 13.8496 158.673 13.9845C158.725 14.0654 158.778 14.1328 158.83 14.2137C158.477 14.4834 158.098 14.6857 157.68 14.8475C157.549 14.8745 157.432 14.9015 157.288 14.9149C157.079 14.9419 156.857 14.888 156.661 14.834C156.622 14.8205 156.582 14.7936 156.556 14.7801C156.569 14.7531 156.596 14.7262 156.622 14.6992ZM155.746 15.8724C155.746 15.8589 155.746 15.8589 155.746 15.8724C155.746 15.8859 155.733 15.9129 155.733 15.9264C155.733 15.8994 155.746 15.8859 155.746 15.8724Z" fill="#F69618"/>
<path d="M179.788 8.84647C178.821 7.26867 177.88 5.69087 176.926 4.11307C176.234 2.98029 175.554 1.83402 174.875 0.687756C174.666 0.296677 174.352 0.0674241 173.934 0.0134822C173.229 -0.0134888 172.798 0.79564 172.575 1.34854C172.34 1.98236 172.223 2.64315 172.197 3.33091C172.17 4.26141 172.301 5.25933 172.785 6.06846C173.947 8.01037 175.097 9.93879 176.273 11.8672C176.338 11.9751 176.404 12.0965 176.482 12.2044C176.286 12.4066 176.077 12.6224 175.881 12.8382C175.45 13.2967 175.006 13.7552 174.588 14.2272C174.026 14.861 173.451 15.4813 172.994 16.1961C172.693 16.6546 172.51 17.1535 172.419 17.6929C172.236 18.583 172.249 19.6214 172.549 20.4844C172.667 20.9295 172.902 21.3071 173.242 21.6037C173.791 21.9678 174.235 21.6577 174.601 21.2126C174.81 20.9564 175.032 20.7137 175.267 20.4709C176.574 19.1763 177.893 17.8817 179.213 16.6006C180.559 18.6774 181.931 20.7407 183.355 22.7635C183.668 23.2085 184.008 23.6266 184.361 24.0446C184.557 24.3952 184.831 24.611 185.223 24.6649C185.864 24.6784 186.256 23.9502 186.465 23.4512C186.674 22.8714 186.791 22.278 186.804 21.6577C186.83 20.8485 186.726 19.8506 186.269 19.1629C185.001 17.2614 183.799 15.306 182.584 13.3506C183.655 12.3122 184.727 11.2873 185.798 10.249C186.19 9.95228 186.465 9.54771 186.634 9.07572C187.013 8.14522 187.092 7.02593 186.948 6.04149C186.883 5.44813 186.7 4.89522 186.412 4.38278C186.269 4.22095 186.125 4.05912 185.981 3.8973C185.811 3.77593 185.641 3.72199 185.472 3.7085C185.302 3.7085 185.132 3.74896 184.949 3.85684C183.224 5.50207 181.499 7.1473 179.788 8.84647Z" fill="#F69618"/>
</g>
<defs>
<clipPath id="clip0">
<rect width="187" height="26" fill="white"/>
</clipPath>
</defs>
</svg>
