<svg width="85" height="85" viewBox="0 0 85 85" fill="none" xmlns="http://www.w3.org/2000/svg">
<path d="M42.4 0C46.2922 0 50.0464 0.494815 53.6625 1.48444C57.2787 2.47407 60.6464 3.90354 63.7656 5.77284C66.8849 7.64214 69.7419 9.84132 72.3367 12.3704C74.9315 14.8994 77.1537 17.7446 79.0031 20.9059C80.8526 24.0672 82.2742 27.4347 83.268 31.0084C84.2617 34.5821 84.7724 38.3207 84.8 42.2242C84.8 46.1003 84.3031 49.8389 83.3094 53.44C82.3156 57.0412 80.8802 60.3949 79.0031 63.5013C77.1261 66.6076 74.9177 69.4528 72.3781 72.0368C69.8386 74.6208 66.9815 76.8338 63.807 78.6756C60.6326 80.5174 57.2511 81.9331 53.6625 82.9227C50.074 83.9124 46.3198 84.4209 42.4 84.4484C38.5078 84.4484 34.7537 83.9536 31.1375 82.964C27.5214 81.9743 24.1537 80.5449 21.0344 78.6756C17.9151 76.8063 15.0581 74.6071 12.4633 72.078C9.86849 69.549 7.64636 66.7038 5.79688 63.5425C3.9474 60.3812 2.52578 57.0137 1.53203 53.44C0.538281 49.8664 0.0276042 46.1278 0 42.2242C0 38.3482 0.496875 34.6096 1.49063 31.0084C2.48438 27.4072 3.91979 24.0535 5.79688 20.9472C7.67396 17.8408 9.88229 14.9956 12.4219 12.4116C14.9615 9.82757 17.8185 7.61465 20.993 5.77284C24.1675 3.93103 27.549 2.51531 31.1375 1.52568C34.726 0.53605 38.4802 0.0274897 42.4 0ZM63.6 42.1005L31.8 21.1121V63.3363L63.6 42.1005Z" fill="white"/>
</svg>
