<svg width="231" height="248" viewBox="0 0 231 248" fill="none" xmlns="http://www.w3.org/2000/svg">
<g opacity="0.4">
<path d="M98.1616 74.8208C86.7647 102.004 76.0019 129.487 72.0045 157.704C68.3812 183.267 70.8335 211.975 95.2982 229.942C123.105 250.38 166.724 243.206 199 229.546C231.882 215.619 250.206 189.906 261.846 163.412C282.972 115.328 288.284 39.3387 220.802 15.9571C167.822 -2.38446 109.767 34.6546 81.5274 69.0401C66.1845 87.74 57.0136 108.939 58.1243 130.6C59.2572 152.878 69.6193 174.491 84.5778 192.716C98.6005 209.799 119.142 225.511 144.736 231.601C172.078 238.123 199.799 231.999 223.299 218.25C249.166 203.116 261.076 177.246 266.802 153.955C273.738 125.818 272.166 96.634 265.036 69.2639C258.849 45.5495 247.552 22.4623 225.633 5.46428C209.058 -7.39201 186.133 -14.6758 162.575 -6.2238C139.296 2.13587 123.34 21.1687 112.004 38.2123C97.875 59.4097 88.7783 82.8753 84.9512 106.134C81.0792 129.609 85.8773 150.688 100.84 170.644C116.992 192.181 146.276 209.546 179.87 210.509C216.021 211.541 246.091 194.39 265.488 170.755C281.235 151.55 287.11 129.745 288.616 107.805C290.19 84.9843 286.729 61.6771 276.974 40.5967C269.044 23.4626 255.263 6.60244 232.716 -0.154893C208.725 -7.33443 180.057 0.795535 159.158 12.3172C134.733 25.7912 118.623 47.2345 108.49 68.4739C89.2565 108.716 85.4237 166.045 127.519 195.881C147.974 210.391 177.983 212.689 205.192 207.483C233.049 202.145 253.685 185.288 264.543 165.034C286.454 124.165 274.202 67.3648 230.497 40.9158C209.073 27.9444 178.841 25.7575 152.198 32.3106C125.718 38.7848 105.074 55.2258 91.9713 73.9199C64.7965 112.697 66.8857 166.757 108.808 195.472C129.249 209.466 160.785 216.767 188.719 211.748C215.889 206.875 237.244 191.852 252.485 173.848C284.257 136.328 294.958 79.8351 266.229 42.0866C253.786 25.729 231.33 14.5114 206.192 13.7451C180.312 12.9419 155.559 21.9443 134.579 34.1465C89.0423 60.6018 53.3447 105.675 48.6636 149.094C46.6283 167.922 52.526 186.683 69.1851 199.958C87.6261 214.663 117.57 221.355 144.324 219.967C198.623 217.146 243.004 179.835 259.951 141.263C268.438 121.944 269.945 100.803 261.418 82.1043C252.13 61.7528 230.425 47.7746 205.18 40.0447C154.596 24.5658 98.578 49.5041 61.6289 78.5907C26.2001 106.486 -4.91346 151.484 20.9684 187.74C36.5506 209.562 66.3658 218.298 97.8523 219.121C134.719 220.089 175.606 211.758 205.281 192.615C262.765 155.544 248.43 81.3851 199.476 48.3824C161.33 22.6673 102.855 32.1022 65.084 57.9692C21.665 87.696 8.38533 134.194 36.9368 171.339C65.5034 208.517 127.101 210.457 175.966 192.685C201.44 183.419 224.182 168.8 240.261 150.67C258.261 130.393 263.363 108.001 261.377 84.5345C259.414 61.3512 249.777 37.5098 226.276 23.0166C207.857 11.6588 183.142 9.27209 159.747 13.3157C97.7891 24.0214 56.2404 74.4977 50.0667 120.64C46.4033 147.983 53.6334 175.473 79.4947 193.927C101.034 209.299 132.151 214.341 161.602 211.045C230.882 203.302 278.255 148.938 270.851 97.0646C264.87 55.0883 219.435 16.5028 162.634 17.8402C97.4236 19.3822 59.2168 78.5918 59.2107 122.936C59.2028 166.815 96.6994 206.8 151.576 216.301C179.784 221.18 209.616 216.296 235.696 205.315C263.49 193.597 284.061 175.522 299.238 154.204C315.125 131.905 324.944 106.877 328.478 82.0615C331.489 60.8284 329.507 38.1275 316.089 19.8285C286.564 -20.3896 210.173 -7.11192 169.193 19.334C123.652 48.72 96.9029 96.7676 91.328 140.778C86.6934 177.387 101.581 219.638 155.015 223.255C218.418 227.559 272.73 188.836 290.3 142.954C305.403 103.482 295.235 48.7862 239.786 35.5731C185.826 22.7168 125.78 49.1775 96.7244 86.3884C71.0117 119.327 64.0236 163.149 82.9708 197.202C91.134 211.894 105.189 224.216 124.244 230.562C146.687 238.032 172.745 235.26 196.012 228.765C252.683 212.953 293.509 174.63 295.474 127.824C297.046 90.2495 269.402 52.0808 218.34 48.795C191.345 47.0624 160.313 55.1115 138.926 69.1177C116.917 83.5233 103.545 104.791 95.872 125.631C88.1138 146.702 85.979 169.574 92.1043 190.439C96.6688 205.933 107.857 221.424 128.796 225.457C143.559 228.306 159.495 223.893 172.921 218.379C174.23 217.832 173.042 216.401 171.753 216.932C146.837 227.146 119.911 227.73 104.17 209.001C89.284 191.295 89.0054 166.509 92.71 145.561C96.9169 121.846 108.595 97.6015 129.277 78.9135C149.936 60.2582 182.956 50.1483 213.31 50.3569C272.066 50.7711 298.84 98.3246 292.031 139.038C283.735 188.686 226.398 228.059 163.368 232.99C109.189 237.213 78.8484 201.752 75.0466 163.815C70.9007 122.505 94.3657 77.1156 140.278 52.3191C166.919 37.9227 201.823 30.7948 232.532 35.8922C262.357 40.849 281.941 59.6153 289.992 81.6652C307.5 129.55 275.552 190.212 214.431 212.513C187.594 222.308 152.707 226.24 127.169 215.021C105.216 205.366 95.9867 185.332 93.4045 166.379C87.158 120.532 113.093 68.2326 153.759 33.1856C176.161 13.8782 203.929 1.74392 236.197 -2.54148C267.455 -6.70446 297.822 -0.350774 314.079 20.7897C329.541 40.8927 329.278 67.4958 324.649 90.7331C319.58 116.223 307.5 141.589 289.297 163.725C253.208 207.589 181.025 230.356 122.853 206.112C65.1768 182.047 48.3249 124.972 73.3757 77.3612C86.5667 52.3083 110.708 28.8519 145.308 21.5492C174.565 15.3835 204.555 23.4588 226.54 37.1781C281.946 71.7716 282.703 140.533 230.285 181.988C178.797 222.719 84.5713 219.892 58.0274 165.917C43.9931 137.377 52.2118 102.014 70.1055 74.1251C84.7525 51.3099 108.962 31.6187 138.722 20.7541C163.74 11.6091 192.716 10.0485 216.3 19.9979C245.677 32.4027 256.605 59.7095 259.123 84.6564C261.753 110.589 253.89 134.787 232.397 156.101C213.727 174.61 187.408 188.399 159.342 196.129C132.266 203.587 102.183 204.801 76.5173 196.26C48.4756 186.939 31.0213 165.566 25.1896 142.561C14.0165 98.3787 56.3129 54.1507 110.14 39.394C135.905 32.3341 163.844 33.2098 186.645 43.4544C217.079 57.1202 233.868 86.6345 238.996 113.134C245.342 145.945 229.253 179.245 191.601 198.338C157.412 215.677 110.725 221.452 72.6523 215.022C41.7095 209.802 17.8686 190.137 14.0976 165.423C10.8609 144.253 22.4289 122.537 37.4215 104.527C67.6002 68.3287 126.942 31.8907 183.79 37.382C213.312 40.2324 241.394 55.1498 255.023 75.2197C267.936 94.2211 266.971 117.558 258.79 138.484C241.914 181.588 189.2 221.519 129.449 218.214C100.714 216.634 71.4295 205.214 58.4159 185.128C46.1322 166.143 49.799 142.464 57.9359 122.069C75.0535 79.0221 120.509 31.8991 177.989 18.2908C205.743 11.7346 234.519 16.9793 253.923 32.4436C274.794 49.0801 280.768 74.5871 280.034 97.7471C278.611 142.42 246.14 204.899 179.988 211.128C147.057 214.23 114.099 201.511 95.7703 181.53C78.154 162.317 73.7148 136.786 77.9297 113.004C82.0581 89.7866 95.5084 66.5725 118.099 50.0179C141.948 32.5483 176.349 26.4225 206.251 33.1465C236.264 39.9069 255.083 62.0328 264.539 84.0209C274.486 107.188 275.354 133.772 265.505 157.933C255.564 182.375 231.826 201.646 199.171 206.77C167.318 211.749 136.387 204.664 117.787 184.709C100.122 165.745 96.0826 140.074 97.7603 116.54C99.5921 90.9124 109.454 64.72 127.157 42.2876C144.068 20.8661 171.039 3.69778 202.984 -0.446532C231.275 -4.12397 253.126 8.79242 266.175 26.4986C280.842 46.3636 285.833 70.7948 286.594 93.9454C287.285 115.113 284.311 138.278 271.96 158.059C253.217 188.089 218.017 212.145 174.149 208.405C133.787 204.96 104.503 179.086 91.6027 150.993C81.9081 129.881 85.5551 106.367 92.4149 84.323C99.778 60.6271 112.323 36.6557 131.703 16.8499C147.42 0.791294 170.722 -12.5801 196.638 -6.7803C227.234 0.0625132 245.52 25.8541 255.166 47.6975C267.272 75.0697 270.872 105.391 267.843 134.8C265.03 161.917 255.226 192.107 228.851 212.306C205.131 230.462 170.662 237.318 141 228.736C113.3 220.723 92.868 201.85 79.2707 182.164C65.3794 162.054 57.244 137.82 61.2272 114.216C65.2143 90.5778 82.2265 67.9934 102.722 50.0663C123.306 32.0417 151.133 16.845 181.742 13.6302C215.008 10.1213 244.983 25.2234 259.502 47.1326C277.703 74.6037 275.629 110.283 267.478 140.752C259.721 169.832 243.203 203.52 210.532 221.933C174.641 242.156 119.718 251.171 90.2305 223.16C66.0887 200.24 71.5114 164.085 78.5747 136.002C83.749 115.41 91.9195 95.2167 100.341 75.1631C100.821 74.0272 98.6166 73.7341 98.1616 74.8208Z" fill="#F69618"/>
</g>
</svg>
