<svg width="520" height="66" viewBox="0 0 520 66" fill="none" xmlns="http://www.w3.org/2000/svg">
<g clip-path="url(#clip0)">
<path d="M4.50479 45.5657C70.8394 36.257 137.625 30.2876 204.578 27.7396C271.067 25.1967 337.681 26.0037 404.096 30.148C441.451 32.4863 478.742 35.8674 515.898 40.3118C520.361 40.8342 520.56 33.9428 516.169 33.3535C456.802 25.4187 397.199 19.3563 337.43 15.1689C277.685 10.9593 217.82 8.64985 157.927 8.24411C124.137 7.99604 90.3468 8.37512 56.5801 9.33586C52.1151 9.46386 51.8207 16.4212 56.309 16.2942C116.168 14.5847 176.094 14.7594 235.969 16.8137C295.821 18.8672 355.622 22.8235 415.235 28.654C448.859 31.9387 482.437 35.8255 515.922 40.3127C516.012 37.9933 516.102 35.6739 516.193 33.3545C449.74 25.4223 382.901 20.8433 316 19.6535C249.076 18.4627 182.112 20.6619 115.413 26.2165C77.7986 29.3502 40.2816 33.5564 2.91044 38.7903C-1.50401 39.408 0.0903403 46.1835 4.50479 45.5657Z" fill="#F69618"/>
</g>
<defs>
<clipPath id="clip0">
<rect width="518.508" height="44.799" fill="white" transform="translate(1.88574 0.700348) rotate(2.23145)"/>
</clipPath>
</defs>
</svg>
