<svg width="255" height="244" viewBox="0 0 255 244" fill="none" xmlns="http://www.w3.org/2000/svg">
<path d="M67.2287 95.1447C65.1847 119.108 63.6553 143.253 67.069 167.269C70.1602 189.026 78.2406 212.746 99.5015 225.077C123.671 239.107 152.91 228.331 172.698 213.378C192.856 198.137 200.12 174.643 202.488 151.228C206.786 108.734 193.739 44.6551 140.881 32.5148C99.3863 22.9962 66.5496 60.3097 54.1955 92.1377C47.4875 109.445 45.6935 128.164 51.2676 146.143C56.9938 164.634 69.095 181.558 83.6952 195.146C97.3817 207.884 115.372 218.761 134.805 221.045C155.569 223.497 173.805 215.341 187.372 201.276C202.306 185.795 205.003 162.872 203.9 142.783C202.58 118.511 195.017 94.2977 183.927 72.2088C174.311 53.0714 161.224 35.0181 141.976 23.2174C127.42 14.2917 109.609 10.7183 94.8299 20.3631C80.2276 29.9002 73.1593 47.5532 68.9166 63.0374C63.6188 82.2986 62.3785 102.904 64.8164 122.758C67.2702 142.798 75.3213 159.885 90.3072 174.921C106.483 191.146 131.017 202.446 154.97 199.568C180.746 196.468 198.204 178.841 206.685 156.965C213.568 139.191 212.898 120.327 209.112 101.829C205.178 82.5874 197.58 63.4913 186.025 46.9461C176.633 33.498 163.166 20.9204 145.739 17.7456C127.198 14.3762 108.736 24.3122 96.5141 36.2305C82.2327 50.1668 75.5889 69.8507 73.1241 88.709C68.4296 124.443 78.3962 172.768 114.741 193.084C132.404 202.967 154.119 201.597 172.196 194.264C190.702 186.751 201.558 170.402 204.753 152.288C211.201 115.737 189.984 69.6172 153.251 52.3074C135.244 43.817 113.395 45.3036 96.0162 53.6999C78.7346 62.0124 67.781 78.0134 62.6549 95.0704C52.0245 130.452 65.4532 175.395 101.428 194.794C118.966 204.246 142.867 206.89 161.498 199.634C179.621 192.583 191.39 177.689 198.18 160.975C212.337 126.141 207.409 77.7621 178.761 49.3687C166.351 37.0645 148.002 30.1526 130.068 32.2679C111.601 34.4337 96.0996 44.6694 83.971 57.1653C57.6405 84.2629 42.3792 125.839 48.6707 162.633C51.3953 178.589 59.7109 193.619 74.4186 202.885C90.7017 213.151 113.342 215.461 131.942 211.368C169.69 203.059 192.804 167.017 196.252 132.929C197.979 115.855 194.369 98.0249 184.209 83.3349C173.146 67.3472 154.717 58.0464 135.167 54.3547C95.9983 46.9656 61.9255 73.9445 42.2452 102.299C23.376 129.493 11.3375 170.503 37.6436 197.962C53.4799 214.487 76.4812 218.519 98.9139 215.755C125.181 212.523 152.233 201.08 168.972 181.831C201.398 144.553 174.871 84.1576 132.98 61.9469C100.338 44.6409 61.1005 58.9346 40.1276 84.6894C16.0167 114.288 16.9128 154.598 45.3019 182.506C73.7092 210.44 117.668 205.309 148.271 185.102C164.223 174.568 177.063 159.859 184.417 142.947C192.655 124.031 191.309 104.761 184.717 85.37C178.204 66.2133 166.123 47.3478 146.311 37.8135C130.784 30.3421 112.79 31.0569 97.1512 37.0003C55.7339 52.7377 37.5324 99.47 43.3713 138.703C46.8279 161.952 58.015 184.13 80.3707 196.715C98.9907 207.199 122.095 208.001 142.179 202.019C189.426 187.955 210.883 137.335 194.183 94.8016C180.675 60.382 140.036 33.1206 100.192 40.4646C54.45 48.9012 40.5409 102.565 50.341 139.62C60.0366 176.285 95.3752 205.586 136.256 207.51C157.269 208.495 177.271 201.143 193.273 189.109C210.324 176.271 220.865 158.913 226.876 139.435C233.173 119.061 234.579 97.0713 231.59 75.948C229.023 57.8757 222.603 39.1242 209.075 25.3044C179.319 -5.06518 128.27 14.4035 105.158 40.9937C79.4715 70.5407 71.1915 113.621 76.9822 151.007C81.801 182.105 101.663 215.779 140.224 212.943C185.981 209.59 215.801 171.28 218.073 131.014C220.019 96.3764 200.74 51.7874 158.634 46.8247C117.66 41.997 81.0762 70.6897 68.7705 104.968C57.8825 135.31 62.6329 172.694 83.5513 199.071C92.5685 210.453 105.225 219.208 120.094 222.422C137.606 226.204 155.407 221.031 170.413 213.054C206.966 193.629 227.344 157.131 218.384 117.805C211.188 86.2355 183.213 57.3722 146.402 60.2239C126.942 61.7352 106.792 71.8627 94.7748 85.9107C82.4065 100.361 77.6595 119.598 76.8445 137.853C76.0206 156.31 79.5689 175.656 88.5106 192.419C95.1619 204.865 106.493 216.583 122.182 217.657C133.245 218.42 143.531 212.986 151.799 206.907C152.604 206.306 151.448 205.24 150.654 205.826C135.305 217.091 116.406 220.531 101.141 206.607C86.7068 193.443 81.0299 172.763 79.0164 154.853C76.7461 134.575 79.6384 113.036 90.1223 95.1536C100.597 77.3007 121.697 65.2333 143.193 62.0803C184.806 55.9857 214.24 92.7864 218.43 127.552C223.545 169.947 191.731 209.133 148.279 220.163C110.926 229.63 81.6442 203.325 70.5699 172.042C58.5066 137.977 65.0535 97.4783 92.0168 71.7255C107.66 56.7757 130.75 46.9935 153.578 47.8866C175.751 48.7591 193.74 62.2934 204.305 79.8356C227.264 117.929 218.099 172.12 179.837 197.455C163.037 208.581 139.253 215.69 118.725 209.116C101.077 203.455 90.1252 187.726 84.1098 172.172C69.5591 134.547 76.3241 88.0028 97.3128 54.2599C108.875 35.6711 125.815 22.4878 147.671 15.3698C168.84 8.46477 191.705 10.4451 207.867 26.3279C223.239 41.4311 228.934 63.6894 230.801 83.6138C232.854 105.469 229.926 127.989 221.956 148.481C206.151 189.089 160.174 216.026 113.705 202.144C67.6261 188.359 43.0982 142.514 50.2746 99.9844C54.0574 77.6043 65.9316 55.3578 88.7678 45.463C108.08 37.1039 131.059 40.5641 149.628 49.6179C196.431 72.4506 212.169 129.824 184.292 170.21C156.911 209.889 89.6991 217.855 59.0075 175.664C42.7796 153.354 40.7692 122.904 47.2482 97.6388C52.5546 76.9689 65.3091 57.8612 83.938 45.5205C99.5962 35.1365 119.728 30.6562 138.593 36.3847C162.097 43.5298 175.856 65.1495 183.151 85.7189C190.744 107.1 190.537 128.182 180.06 148.347C170.959 165.861 155.409 180.268 137.284 189.803C119.799 199.002 98.8082 203.315 78.7826 198.992C56.9052 194.277 39.8452 178.331 30.6378 159.747C12.9735 124.053 33.085 82.4601 67.8608 64.2291C84.5076 55.5055 104.445 53.1747 122.823 59.2355C147.351 67.3186 165.742 90.1402 175.224 111.721C186.963 138.442 182.956 168.031 160.569 188.113C140.242 206.348 108.526 216.292 80.1995 215.093C57.1787 214.123 35.983 200.304 27.8539 180.066C20.8861 162.732 24.2595 143.317 30.8726 126.625C44.1961 93.0699 78.0756 56.1176 119.463 54.4745C140.956 53.6201 164.099 63.0067 178.167 78.2832C191.494 92.7451 195.972 112.351 194.817 130.734C192.421 168.601 163.998 207.746 121.042 211.534C100.386 213.363 77.1668 207.031 63.5293 191.673C50.6514 177.157 48.0072 156.968 49.2483 139.035C51.8275 101.188 73.5315 56.8297 111.143 39.1578C129.306 30.6372 150.802 31.8652 167.933 42.6601C186.36 54.2736 196.221 74.9324 200.823 94.3652C209.694 131.849 200.561 187.617 155.19 200.073C132.604 206.274 106.502 199.26 89.1315 184.573C72.4347 170.45 63.6527 149.602 61.3733 129.268C59.1575 109.415 63.53 88.5432 75.8343 72.2339C88.8251 55.0221 111.782 46.1324 134.4 48.4731C157.104 50.8321 175.295 67.2576 186.838 84.5942C198.99 102.862 205.481 124.98 203.862 146.249C202.241 167.762 189.727 186.467 167.783 194.329C146.374 201.981 122.949 199.451 105.394 184.816C88.7172 170.906 80.1867 149.898 76.169 130.049C71.7973 108.434 72.9758 85.4666 80.526 64.7816C87.741 45.028 103.005 27.7258 124.664 20.761C143.843 14.587 162.14 22.9846 175.276 36.3495C190.033 51.3408 198.962 71.2083 204.618 90.4695C209.787 108.081 212.807 127.764 208.452 145.646C201.846 172.795 182.289 196.754 150.462 198.437C121.177 199.983 94.7628 181.573 79.4348 159.513C67.9162 142.934 65.2946 122.887 65.2685 103.715C65.2328 83.1072 68.7983 61.7017 78.1147 43.0276C85.6711 27.8862 99.1819 14.1588 118.778 16.1642C141.913 18.5282 160.538 38.075 172.184 55.27C186.791 76.815 196.039 101.757 200.4 126.663C204.407 149.63 204.155 175.932 189.981 195.701C177.233 213.472 154.39 222.98 131.532 219.059C110.185 215.4 91.5732 201.87 77.6118 186.911C63.3488 171.63 52.2418 152.272 49.8378 132.111C47.4293 111.923 54.4582 91.1864 64.9785 73.96C75.5395 56.6423 91.8443 40.8936 112.764 34.8521C135.497 28.2734 160.019 37.6069 175.123 54.3226C194.059 75.2823 200.482 105.323 201.458 131.676C202.406 156.826 198.181 186.786 179.164 205.753C158.272 226.586 121.452 240.139 94.4208 219.966C72.2928 203.46 68.1314 172.655 66.9138 148.414C66.0177 130.641 67.3269 112.872 68.8447 95.1918C68.9327 94.1899 67.31 94.1867 67.2287 95.1447Z" fill="#FEACA1"/>
</svg>
