<svg width="160" height="22" viewBox="0 0 160 22" fill="none" xmlns="http://www.w3.org/2000/svg">
<g clip-path="url(#clip0)">
<path d="M0.0125289 15.3762C-0.0427245 15.5583 0.0401556 15.7963 0.219729 15.8804C0.302609 15.9224 0.385489 15.9504 0.468369 15.9924C0.523623 16.0064 0.565063 16.0344 0.620316 16.0484C0.717009 16.0624 0.827516 16.0764 0.92421 16.0904C1.03472 16.1044 1.15904 16.0344 1.24192 15.9644C1.25573 15.9504 1.25573 15.9504 1.26954 15.9364C9.94432 15.8103 18.6329 15.6843 27.3077 15.5583C27.9017 15.5443 28.5095 15.5303 29.1034 15.5023C31.0373 15.4322 32.9712 15.3622 34.9189 15.3062C35.2366 15.2922 35.5543 15.2782 35.872 15.2782C36.4383 15.2782 37.0047 15.2782 37.5848 15.2922C39.4358 15.3062 41.2868 15.3062 43.1516 15.3202C46.5082 15.3342 49.8649 15.3482 53.2077 15.3762C58.1115 15.4042 63.0014 15.4182 67.9051 15.4322C65.916 15.6003 63.9131 15.7823 61.9239 15.9644C60.7636 16.0624 59.6033 16.1744 58.443 16.2725C56.5644 16.2865 54.6857 16.3005 52.7933 16.3145C50.9976 16.3285 49.2019 16.3285 47.4061 16.3285C46.6049 16.3285 45.8038 16.3285 45.0164 16.3285C44.16 16.3285 43.3174 16.3285 42.4609 16.3285C40.5133 16.3285 38.5794 16.3285 36.6317 16.3425C34.6288 16.3565 32.6396 16.3565 30.6367 16.3705C29.0758 16.3845 27.5011 16.3845 25.9402 16.3985C24.1444 16.4265 22.3487 16.4545 20.553 16.4825C20.3872 16.4825 20.2491 16.6226 20.2491 16.7906C20.2491 16.9727 20.3872 17.0987 20.553 17.0987C20.8707 17.1127 21.1884 17.1407 21.5199 17.1407C21.7133 17.1407 21.9205 17.1407 22.1139 17.1407C22.8045 17.1407 23.4814 17.1267 24.1721 17.1267C24.8627 17.1267 25.5672 17.1127 26.2579 17.1127C28.5371 17.0847 30.8301 17.0707 33.1231 17.0427C33.6342 17.0427 34.1591 17.0427 34.6702 17.0427C37.2119 17.0427 39.7535 17.0567 42.2952 17.0567C44.7401 17.0707 47.1851 17.0707 49.6162 17.0847C45.6656 17.4348 41.7012 17.7989 37.7506 18.149C30.8163 18.7652 23.882 19.4093 16.9477 20.0535C16.6852 20.0815 16.4504 20.1515 16.257 20.3476C16.0774 20.5296 15.9669 20.7817 15.9669 21.0478C15.9669 21.3138 16.0774 21.5659 16.257 21.748C16.4228 21.916 16.6991 22.056 16.9477 22.042C25.0838 21.2858 33.2198 20.5436 41.3697 19.8294C48.9118 19.1573 56.4539 18.4851 63.9821 17.8129C67.4217 17.5048 70.8474 17.2247 74.2869 16.9306C76.3727 16.8746 78.4723 16.8186 80.5581 16.7626C82.4229 16.7066 84.2878 16.6646 86.1387 16.6086C86.7051 16.5946 87.2714 16.5806 87.8516 16.5525C91.6226 16.3565 95.3937 16.1604 99.1509 15.9504C101.002 15.8524 102.867 15.7543 104.718 15.6563C105.298 15.6283 105.878 15.6003 106.472 15.5583C107.384 15.5023 108.309 15.4462 109.221 15.3762C110.685 15.3482 112.163 15.3342 113.627 15.3062C115.989 15.2642 118.338 15.2362 120.7 15.1662C126.791 15.0121 132.883 14.8581 138.989 14.7461C139.652 14.732 140.315 14.732 140.978 14.7881C141.351 14.8441 141.696 14.9421 142.055 15.0681C142.276 15.1522 142.552 15.0961 142.746 14.9701C142.953 14.8441 143.091 14.648 143.16 14.424C143.229 14.1859 143.188 13.9338 143.064 13.7238C142.939 13.4997 142.76 13.3877 142.525 13.3037C142.414 13.2616 142.304 13.2196 142.193 13.1776C146.102 12.9256 150.012 12.6735 153.921 12.4214C154.57 12.3794 155.219 12.3514 155.882 12.3234C156.49 12.2954 157.098 12.2534 157.692 12.1834C157.927 12.1553 158.175 12.1133 158.41 12.0853C158.755 12.0293 159.087 11.9313 159.432 11.8613C159.626 11.8193 159.805 11.6652 159.902 11.4972C160.013 11.3011 160.026 11.1051 159.985 10.881C159.943 10.6429 159.805 10.4749 159.653 10.2928C159.626 10.2648 159.598 10.2228 159.57 10.1948C159.474 10.0968 159.363 10.0268 159.225 9.98475C159.156 9.97075 159.087 9.95675 159.018 9.95675C158.88 9.95675 158.742 9.99876 158.617 10.0688C158.452 10.1668 158.327 10.3208 158.272 10.5169H158.258C158.037 10.5729 157.816 10.6149 157.595 10.6429C156.283 10.797 154.957 10.839 153.631 10.937C152.664 11.007 151.697 11.0911 150.73 11.1611C149.514 11.2591 148.299 11.3571 147.083 11.4412C143.961 11.6792 140.84 11.9313 137.704 12.1693C131.847 12.6175 125.99 13.0796 120.133 13.4997C119.429 13.5557 118.724 13.5977 118.02 13.6538C117.246 13.6818 116.473 13.6958 115.699 13.7098C114.056 13.7518 112.426 13.7938 110.782 13.8218C112.812 13.6538 114.857 13.4857 116.887 13.3177C118.932 13.1496 120.976 12.9816 123.034 12.8275C126.17 12.5755 129.319 12.3094 132.455 12.0853C135.411 11.8613 138.381 11.6372 141.337 11.4271C142.76 11.3291 144.182 11.2171 145.619 11.1191C146.351 11.063 147.097 11.007 147.829 10.965C148.326 10.937 148.81 10.909 149.307 10.853C149.777 10.811 150.246 10.727 150.716 10.6569C150.91 10.6289 151.089 10.6009 151.269 10.5589C151.476 10.5169 151.683 10.4049 151.876 10.3208C152.111 10.2228 152.277 10.0128 152.429 9.81671C152.526 9.67667 152.581 9.53663 152.65 9.38259C152.691 9.29857 152.719 9.20054 152.76 9.11652C152.76 9.08851 152.774 9.07451 152.774 9.0465C153.23 8.87845 153.562 8.41633 153.562 7.91219C153.562 7.24001 153.023 6.72186 152.374 6.70786C151.503 6.69386 150.619 6.67985 149.749 6.67985C149.542 6.67985 149.349 6.73587 149.169 6.8339C148.63 6.8479 148.078 6.8619 147.539 6.88991C146.6 6.91792 145.66 6.94593 144.721 6.97393C145.163 6.90391 145.619 6.83389 146.061 6.76388C147.346 6.73587 148.617 6.70786 149.901 6.67985C150.26 6.66585 150.592 6.4838 150.799 6.21773C150.827 6.21773 150.868 6.21773 150.896 6.23173C151.075 6.25974 151.255 6.30175 151.421 6.34376C151.794 6.42778 152.194 6.25974 152.346 5.89564C152.622 5.88164 152.885 5.86763 153.147 5.85363C153.424 5.83962 153.672 5.7556 153.879 5.54554C154.073 5.34949 154.183 5.08342 154.183 4.80334C154.183 4.57928 154.1 4.35522 153.976 4.18717C153.99 4.18717 154.018 4.18717 154.031 4.18717C154.791 4.25719 155.537 4.2852 156.297 4.36922C156.739 4.43924 157.181 4.52326 157.609 4.67731C157.637 4.74733 157.65 4.83135 157.664 4.91537C157.664 4.95738 157.664 4.99939 157.678 5.05541C157.692 5.30748 157.775 5.53154 157.954 5.72759C158.134 5.90964 158.369 6.00767 158.617 6.00767C158.866 6.00767 159.101 5.90964 159.28 5.72759C159.446 5.55955 159.584 5.29347 159.557 5.05541C159.529 4.81734 159.501 4.59328 159.46 4.36922C159.419 4.14516 159.308 3.9351 159.211 3.73905C159.17 3.68304 159.128 3.62702 159.087 3.571C159.004 3.43097 158.894 3.31894 158.755 3.23491C158.59 3.10888 158.424 3.02486 158.217 2.94083C157.816 2.78679 157.388 2.71677 156.96 2.63275C156.324 2.50671 155.675 2.47871 155.04 2.4507C154.031 2.39468 153.023 2.29666 152.015 2.21263C150.44 2.0866 148.879 1.97457 147.304 1.87654C145.84 1.77852 144.376 1.66649 142.912 1.59647C140.826 1.48444 138.74 1.38641 136.654 1.27438C135.287 1.17635 133.947 1.09233 132.607 1.03631C131.046 0.980298 129.485 0.910279 127.924 0.84026C125.521 0.742233 123.131 0.644206 120.727 0.546179C119.691 0.504168 118.669 0.448153 117.633 0.420145C113.917 0.336122 110.202 0.252099 106.486 0.168076C104.345 0.126065 102.204 0.0700496 100.063 0.0280382C99.4272 0.0280382 98.7918 3.05176e-05 98.1425 3.05176e-05C98.0735 3.05176e-05 98.0044 3.05176e-05 97.9353 3.05176e-05C90.9043 0.0700496 83.8872 0.140069 76.8562 0.224092C76.6352 0.224092 76.4141 0.252099 76.1931 0.252099C75.5853 0.280107 74.9914 0.308115 74.3836 0.336122C72.3945 0.434149 70.3915 0.532176 68.4024 0.630202C63.6782 0.868267 58.9679 1.10633 54.2437 1.33039C52.9176 1.40041 51.5916 1.45643 50.2655 1.52645C49.8649 1.54045 49.4643 1.58246 49.0637 1.62447C48.0139 1.58246 46.9779 1.52645 45.9281 1.48444C42.4609 1.33039 38.98 1.16235 35.5128 1.00831C34.6702 0.966294 33.8276 0.924283 32.9988 0.896275C32.1009 0.854264 31.2169 0.84026 30.319 0.812252C28.399 0.770241 26.4789 0.742233 24.5588 0.700222H24.545C24.0892 0.700222 23.7024 1.10633 23.7024 1.56846C23.7024 2.05859 24.0892 2.4367 24.5588 2.4367C26.4789 2.47871 28.399 2.50671 30.319 2.54873C31.2169 2.57673 32.1009 2.59074 32.9988 2.63275C33.8414 2.67476 34.6702 2.71677 35.5128 2.74478C35.941 2.75878 36.3693 2.78679 36.7975 2.80079C32.4463 3.22091 28.1089 3.65503 23.7577 4.07514C22.3625 4.21518 20.9536 4.34122 19.5584 4.48125C18.2876 4.60729 17.0306 4.74733 15.7736 4.90137C13.964 4.91537 12.1683 4.88736 10.3587 4.84535C9.94432 4.84535 9.59899 5.20945 9.59899 5.62957C9.59899 5.65757 9.59899 5.69959 9.6128 5.72759C8.89451 5.81162 8.17622 5.90964 7.45792 5.99367C7.37504 6.00767 7.30598 6.02167 7.2231 6.02167C7.07115 6.06368 6.93302 6.14771 6.82251 6.25974C6.65675 6.42778 6.56005 6.66585 6.56005 6.90391C6.56005 7.14198 6.65675 7.38004 6.82251 7.54809C6.97446 7.70213 7.23691 7.84217 7.45792 7.81416C9.88907 7.52008 12.3202 7.19799 14.7514 6.88991C15.7597 6.76388 16.7681 6.63784 17.7765 6.52581C23.661 6.60983 29.5593 6.69386 35.4438 6.77788C40.5271 6.8479 45.6104 6.88991 50.7075 6.93192C51.412 6.93192 52.1027 6.94593 52.8071 6.94593C47.5166 7.19799 42.2261 7.46407 36.9356 7.71614C33.7033 7.87018 30.4571 8.02422 27.2248 8.19227C22.7217 8.41633 18.2323 8.6964 13.7292 8.96248C13.4391 8.97648 13.1766 9.07451 12.9694 9.28456C12.7761 9.48062 12.6517 9.76069 12.6517 10.0548C12.6517 10.6289 13.1352 11.1751 13.7292 11.1471C17.445 10.923 21.1469 10.6989 24.8627 10.5029C21.8376 10.713 18.7987 10.923 15.7736 11.1331C13.6049 11.2731 11.4638 11.5672 9.30891 11.8193C9.12934 11.8333 8.97739 11.8753 8.83926 12.0153C8.71494 12.1413 8.64587 12.3094 8.64587 12.4914C8.64587 12.6735 8.71494 12.8415 8.83926 12.9676C8.94976 13.0796 9.14315 13.1776 9.30891 13.1636C11.4776 12.9116 13.6463 12.6175 15.8288 12.4774C17.4588 12.3654 19.0888 12.2534 20.7049 12.1553C24.6003 11.8893 28.5095 11.6372 32.4048 11.3711C32.9159 11.3431 33.4408 11.2871 33.9519 11.2871C35.2504 11.2731 36.5488 11.2451 37.8473 11.2311C39.9883 11.2031 42.1432 11.1611 44.2843 11.1331C42.7234 11.2731 41.1487 11.4271 39.5878 11.5672C37.9163 11.7212 36.2449 11.8893 34.5735 12.0013C31.4517 12.2114 28.3161 12.4214 25.1943 12.6455C25.139 12.4774 24.9732 12.3374 24.7937 12.3374C24.7799 12.3374 24.7799 12.3374 24.766 12.3374C20.5253 12.5895 16.2847 12.8555 12.044 13.1356C11.892 13.1076 11.7539 13.1776 11.671 13.3317C11.6296 13.3877 11.6157 13.4717 11.6157 13.5417C11.5743 13.5417 11.5329 13.5417 11.4776 13.5557C11.4914 13.5137 11.5052 13.4717 11.5052 13.4297C11.5052 13.2196 11.3257 13.0236 11.1185 13.0376C9.37798 13.1636 7.6375 13.3037 5.89701 13.4437C4.07365 13.5837 2.2641 13.7938 0.454556 14.0179C0.316423 14.0319 0.192102 14.0879 0.109222 14.2139C0.0125289 14.382 0.0539689 14.564 0.164476 14.704C0.261169 14.8161 0.344049 14.9421 0.468369 15.0401C0.454556 15.0401 0.440743 15.0401 0.426929 15.0401C0.247356 15.0401 0.0677823 15.1802 0.0125289 15.3762ZM96.8026 12.9256C92.0232 13.3317 87.2438 13.7518 82.4782 14.1579C81.608 14.1579 80.7377 14.1579 79.8537 14.1579C77.0081 14.1719 74.1764 14.1859 71.3308 14.1859C69.245 14.1859 67.1592 14.1859 65.0734 14.1999C65.8746 14.1719 66.6895 14.1439 67.4907 14.1019C73.831 13.8638 80.1714 13.5977 86.5117 13.3457C89.6473 13.2196 92.783 13.0796 95.9186 12.9536C96.2225 12.9396 96.5126 12.9256 96.8026 12.9256ZM120.617 7.78615C117.606 7.89819 114.58 8.03822 111.569 8.16426C104.524 8.45834 97.4933 8.76642 90.4485 9.08851C87.9345 9.20054 85.4343 9.31257 82.9202 9.4246C81.3455 9.50863 79.7708 9.57864 78.2099 9.66267C77.3949 9.66267 76.5937 9.64866 75.7787 9.64866C79.8675 9.32657 83.9424 9.01849 88.0312 8.6964C88.8047 8.64039 89.5921 8.59838 90.3656 8.55637C92.4929 8.43033 94.6063 8.3043 96.7198 8.17826C98.8608 8.05223 101.002 7.92619 103.143 7.80016C104.925 7.77215 106.707 7.73014 108.475 7.68813C112.495 7.5901 116.514 7.49207 120.534 7.38004C122.647 7.32403 124.761 7.28202 126.888 7.212C128.09 7.16999 129.305 7.12798 130.507 7.07196C130.659 7.226 130.839 7.35204 131.032 7.38004C131.087 7.39405 131.143 7.40805 131.198 7.40805C127.662 7.53409 124.139 7.66012 120.617 7.78615ZM76.5385 2.04459C77.1048 2.01658 77.6712 2.01658 78.2375 2.01658C80.1852 1.98857 82.1329 1.97457 84.0805 1.94656C88.4041 1.90455 92.7277 1.84853 97.0375 1.80652C97.6038 1.80652 98.184 1.79252 98.7503 1.80652C100.505 1.84853 102.259 1.87654 104.013 1.91855C108.295 2.01658 112.591 2.1006 116.873 2.19863C117.55 2.21263 118.227 2.24064 118.904 2.26865C121.073 2.35267 123.241 2.4367 125.41 2.53472C128.394 2.66076 131.391 2.75878 134.375 2.91283C137.773 3.09487 141.185 3.23491 144.583 3.45897C145.73 3.543 146.862 3.61302 148.009 3.68304C148.672 3.72505 149.321 3.76706 149.984 3.82307C150.136 3.83708 150.288 3.85108 150.44 3.86508C149.39 3.9071 148.34 3.96311 147.304 4.00512C147.166 3.97712 147.028 3.96311 146.89 3.94911C146.641 3.9211 146.393 3.9211 146.144 3.9211H146.13C145.619 3.9211 145.108 3.96311 144.597 3.99112C144.472 4.00512 144.348 4.00512 144.224 4.01913C143.989 3.71104 143.63 3.51499 143.215 3.51499C141.061 3.543 138.92 3.557 136.778 3.65503C134.955 3.73905 133.132 3.80907 131.322 3.89309C128.85 4.00512 126.391 4.10315 123.932 4.20118C121.238 4.31321 118.559 4.42524 115.865 4.53727C115.133 4.56528 114.387 4.60729 113.655 4.63529C111.942 4.63529 110.229 4.62129 108.503 4.62129C106.845 4.62129 105.174 4.60729 103.516 4.60729C103.019 4.60729 102.508 4.60729 102.01 4.59328C98.999 4.46725 96.0015 4.34121 92.9902 4.21518C90.0065 4.08915 87.0366 3.96311 84.0529 3.83708C83.7214 3.82307 83.3899 3.79507 83.0445 3.78106C81.9257 3.69704 80.793 3.62702 79.6741 3.557C75.0052 3.23491 70.3363 2.91283 65.6674 2.60474C69.3003 2.40869 72.9194 2.22664 76.5385 2.04459ZM39.3253 5.23746C36.7975 5.20945 34.2696 5.18144 31.7556 5.13943C32.9297 5.0274 34.1177 4.91537 35.2918 4.78934C39.4773 4.38323 43.6627 3.97712 47.8481 3.571C48.3454 3.51499 48.8565 3.47298 49.3538 3.43097C51.5501 3.52899 53.7603 3.64102 55.9566 3.73905C57.0616 3.79507 58.1529 3.85108 59.2442 3.9351C66.0818 4.42524 72.9332 4.90137 79.7708 5.3915C80.1161 5.41951 80.4614 5.44752 80.8068 5.47552C77.9336 5.47552 75.0604 5.46152 72.1873 5.46152C66.8691 5.44752 61.551 5.40551 56.219 5.36349C50.5832 5.32148 44.9473 5.30748 39.3253 5.23746ZM46.5773 9.60665C48.4145 9.50863 50.2517 9.4106 52.0888 9.31257C54.1608 9.20054 56.219 9.07451 58.291 8.97648C60.7636 8.87845 63.2362 8.76642 65.7088 8.6684C68.8306 8.57037 71.9386 8.48635 75.0604 8.38832C73.2923 8.52836 71.538 8.6684 69.7699 8.80843C67.7808 8.96248 65.8055 9.11652 63.8164 9.29857C62.9599 9.38259 62.0897 9.45261 61.2333 9.53663C61.178 9.53663 61.1228 9.53663 61.0675 9.53663C59.2442 9.52263 57.4346 9.50862 55.6112 9.50862C55.0311 9.50862 54.4509 9.49462 53.8708 9.50862C51.1081 9.55064 48.3592 9.60665 45.6104 9.66267C45.9281 9.63466 46.2596 9.62066 46.5773 9.60665ZM24.6417 14.0459C28.5785 13.7798 32.5153 13.4997 36.4521 13.2196C38.9247 13.0516 41.3973 12.8555 43.8699 12.7155C48.2625 12.4634 52.6552 12.2254 57.0478 11.9873C59.3408 11.8613 61.6339 11.7212 63.9131 11.6232C67.4217 11.4832 70.9302 11.3291 74.4388 11.1891C78.0441 11.2451 81.6494 11.3011 85.2547 11.3571C87.4372 11.3851 89.6197 11.4412 91.816 11.4552C94.5373 11.4832 97.2723 11.4972 99.9935 11.5252C96.3606 11.7072 92.7277 11.8753 89.1086 12.0573C82.492 12.3794 75.8892 12.6595 69.2726 12.9536C62.5732 13.2476 55.8737 13.5277 49.1742 13.8078C46.8674 13.9058 44.5468 13.9898 42.2399 14.0739C40.9553 14.1159 39.6706 14.1719 38.386 14.2139C37.5296 14.2139 36.687 14.2139 35.8305 14.2139C35.0432 14.2139 34.2696 14.1999 33.4823 14.1859C31.4517 14.1579 29.435 14.1439 27.4182 14.1159C26.4375 14.1019 25.4705 14.0879 24.4898 14.0739C24.5312 14.0599 24.5865 14.0599 24.6417 14.0459ZM13.4115 14.7741C13.4805 14.7881 13.5496 14.8021 13.6187 14.8301C13.1766 14.8441 12.7346 14.8441 12.2926 14.8581C12.6656 14.8301 13.0385 14.8021 13.4115 14.7741ZM3.42443 14.48C3.42443 14.578 3.45205 14.662 3.49349 14.7461C3.07909 14.7461 2.65088 14.7461 2.23648 14.69C2.12597 14.676 2.02928 14.662 1.91877 14.634C2.41605 14.578 2.92714 14.522 3.42443 14.48Z" fill="#FEACA1"/>
</g>
<defs>
<clipPath id="clip0">
<rect width="160" height="22" fill="white"/>
</clipPath>
</defs>
</svg>
