<svg width="235" height="436" viewBox="0 0 235 436" fill="none" xmlns="http://www.w3.org/2000/svg">
<g opacity="0.5" clip-path="url(#clip0)">
<path d="M83.9958 137.091C54.3444 102.776 10.5681 80.9948 -35.3309 84.2369C-82.9258 87.5908 -122.411 122.891 -137.979 166.887C-155.645 216.811 -133.862 271.292 -102.222 310.306C-72.2554 347.243 -26.9593 374.634 20.1971 382.1C92.5704 393.535 152.365 341.953 167.012 273.141C184.133 192.733 136.498 113.431 65.6538 76.7858C4.90534 45.368 -88.7228 38.8906 -138.871 93.4737C-165.744 122.755 -168.554 164.194 -161.608 201.517C-151.855 253.741 -113.328 296.692 -68.8123 323.319C2.47196 365.974 106.938 356.509 157.608 286.203C197.614 230.723 188.465 153.393 145.758 102.408C98.4161 45.8926 -0.190227 15.6291 -64.6077 60.0129C-124.548 101.284 -131.406 188.393 -111.826 252.41C-87.3661 332.27 -13.9857 389.386 71.3001 375.538C148.887 362.938 209.577 291.161 188.122 211.692C166.205 130.594 85.7251 83.6778 4.72434 92.965C-59.1724 100.29 -128.559 145.261 -126.693 216.281C-124.699 291.685 -56.2359 338.012 11.2438 349.986C70.5117 360.508 150.611 351.425 187.615 297.671C206.271 270.599 205.179 236.641 195.309 206.548C180.425 161.058 141.193 126.381 100.268 104.066C60.3764 82.2956 7.21656 69.2445 -35.5697 90.5303C-74.7044 110.005 -94.2753 154.808 -101.281 195.681C-108.316 236.729 -104.102 283.8 -81.2558 319.509C-55.2327 360.216 -9.64473 390.179 34.0301 408.671C76.4219 426.613 125.398 432.874 164.321 403.835C196.28 379.995 203.796 338.56 199.469 301.12C189.263 213.037 120.652 142.956 41.4209 109.411C1.39792 92.4682 -46.0744 84.6466 -83.8935 111.071C-123.205 138.558 -135.651 191.137 -127.854 236.122C-119.661 283.481 -88.504 327.415 -46.0391 349.939C-18.1967 364.695 13.7506 376.281 45.718 374.573C93.5443 372.021 121.805 332.937 129.407 288.791C145.268 196.653 81.785 67.01 -28.0224 100.631C-64.8335 111.891 -90.587 136.69 -103.273 173.107C-117.235 213.204 -113.59 260.114 -96.1326 298.466C-57.4898 383.444 60.3964 383.188 121.485 323.793C173.868 272.845 166.872 186.027 125.022 131.202C91.4013 87.1643 34.1293 57.342 -21.8405 60.9837C-46.0095 62.5653 -69.3522 71.8331 -86.3997 89.2567C-106.684 109.995 -113.888 139.561 -114.76 167.749C-116.07 210.093 -105.972 253.51 -74.5574 283.533C-43.8986 312.841 2.43131 325.019 43.9353 318.916C89.6125 312.184 135.528 283.424 154.76 240.406C172.368 201.037 159.377 156.683 134.754 123.6C108.051 87.7068 64.3563 60.0021 19.3057 56.4166C-20.8722 53.2376 -59.541 74.1663 -83.3536 105.805C-108.654 139.378 -119.337 182.112 -112.06 223.575C-103.874 270.138 -69.4081 308.592 -31.4747 334.427C40.0493 383.137 160.081 392.837 207.956 305.889C239.794 248.087 202.218 180.212 159.728 139.687C114.335 96.3851 43.7973 65.0246 -17.8264 91.1966C-52.473 105.94 -75.7616 138.661 -90.2023 172.225C-103.986 204.236 -107.042 239.919 -96.7478 273.357C-78.1396 334.017 -18.2843 377.664 43.1326 386.74C71.4828 390.927 101.136 386.853 125.923 371.966C153.891 355.157 170.038 325.515 177.299 294.505C188.298 247.646 169.311 198.479 144.021 159.53C117.864 119.243 78.3082 82.3188 30.7557 70.2382C-5.13172 61.1292 -43.4428 70.3896 -68.2926 98.2463C-92.4022 125.298 -100.627 163.854 -101.257 199.093C-101.927 236.123 -93.3477 275.026 -73.2962 306.465C-46.5045 348.459 -2.18143 381.555 49.1967 381.696C99.7777 381.844 146.997 342.557 157.445 293.568C168.113 243.639 141.776 191.248 112.595 152.537C80.8982 110.484 14.5938 43.1175 -42.4622 83.4816C-83.8059 112.741 -88.5755 176.369 -74.1126 220.631C-52.7451 286.032 12.2415 313.884 77.2113 309.843C104.122 308.173 131.381 299.739 150.449 279.92C166.739 263.003 173.632 239.628 174.663 216.622C177.157 161.309 148.872 104.618 112.222 64.6956C76.8834 26.2465 23.8332 -0.768816 -27.8949 20.5433C-61.2737 34.2696 -85.7074 62.4591 -93.0897 97.8223C-102.115 141.016 -87.6332 187.817 -65.3113 224.709C-43.0371 261.5 -9.39244 288.683 33.7206 295.413C75.5187 301.914 120.745 288.524 151.5 259.454C229.035 186.157 149.151 81.8939 79.1106 40.4117C42.2099 18.5585 -1.23311 9.8551 -40.5724 30.6943C-75.3255 49.1204 -92.3982 87.9539 -96.7371 125.351C-105.356 199.749 -57.3846 291.979 23.2669 300.733C89.1097 307.891 147.266 250.423 155.251 187.812C166.007 103.503 80.6691 31.882 4.3319 18.3681C-31.8888 11.9405 -67.2716 23.9296 -83.4304 58.6008C-105.237 105.396 -90.5823 163.503 -65.0851 205.469C-36.7998 252.003 9.67615 287.985 60.8052 306.145C91.5471 317.057 128.994 324.333 160.882 313.86C210.155 297.672 213.609 240.587 202.875 197.803C188.524 140.573 149.751 86.2889 98.7608 56.2071C46.3696 25.2978 -27.6706 27.295 -70.7449 73.9932C-114.024 120.936 -97.3388 194.225 -70.9151 244.975C-43.2492 298.117 8.32447 353.606 71.6268 358.516C135.525 363.489 185.772 303.307 181.666 242.345C177.137 174.578 123.926 113.178 68.4211 78.9134C15.6679 46.3529 -54.655 36.806 -96.2375 91.5038C-139.334 148.21 -133.95 223.49 -91.779 278.422C-54.1582 327.402 8.22316 362.69 70.3298 365.359C96.183 366.453 122.595 360.291 142.839 343.61C165.874 324.626 174.536 294.469 176.068 265.723C179.788 196.645 140.487 134.656 77.4647 106.947C30.5003 86.2904 -35.4453 84.9065 -69.043 129.922C-87.5739 154.732 -88.6278 187.746 -83.6733 217.108C-77.2652 255.067 -59.5035 290.936 -32.0591 318.057C11.8868 361.452 82.4812 378.996 140.229 354.656C165.495 344.011 185.71 324.118 195.642 298.496C208.479 265.345 200.937 228.008 188.067 196.181C160.673 128.455 94.9547 79.6496 23.5809 66.9426C-6.06491 61.6562 -38.0372 63.5881 -64.6703 78.6088C-92.9423 94.5393 -107.403 124.493 -111.678 155.643C-123.257 240.008 -70.6198 331.843 -4.33398 380.91C26.9591 404.059 66.5756 416.86 104.46 403.233C141.416 389.935 172.248 352.874 183.108 315.671C203.644 245.246 146.333 180.021 90.2646 146.441C35.4009 113.585 -47.7002 95.0918 -97.6292 146.543C-150.821 201.382 -117.227 291.651 -78.466 344.267C-57.2354 373.068 -28.7622 398.718 5.57546 410.332C38.4798 421.442 71.9378 413.145 97.9349 390.84C168.054 330.774 146.566 229.171 88.6895 169.236C59.3982 138.912 19.7521 118.442 -22.581 115.863C-58.7454 113.644 -100.317 126.168 -121.404 157.345C-139.479 184.057 -135.371 219.027 -124.346 247.552C-111.247 281.402 -86.8695 310.945 -57.9326 332.522C-29.6082 353.638 5.75079 366.37 41.2588 361.106C78.0911 355.647 114.466 333.721 129.386 298.724C158.362 230.726 104.374 150.363 46.0809 118.303C13.2804 100.25 -30.0767 93.2907 -63.9229 112.384C-89.7495 126.975 -102.906 157.654 -95.1701 186.256C-87.5023 214.558 -60.3834 230.494 -33.2811 235.923C-31.4212 236.288 -30.6365 233.467 -32.4959 233.078C-70.4831 225.441 -102.842 195.298 -92.6379 153.973C-81.8285 110.046 -31.6421 98.7581 7.15722 106.836C81.9794 122.408 151.295 210.18 130.05 287.884C118.613 329.755 75.4461 354.742 34.3303 359.06C-5.38708 363.211 -43.7896 342.818 -72.3563 316.892C-123.336 270.603 -166.159 169.674 -84.3195 130.331C7.01051 86.4431 109.077 165.231 134.126 252.223C147.334 298.05 137.152 346.272 104.056 380.992C75.6506 410.812 36.747 419.835 -1.49559 404.599C-39.269 389.548 -68.871 356.38 -89.5639 322.412C-110.185 288.595 -124.158 248.079 -121.332 208.109C-118.688 170.799 -95.1965 139.028 -60.4717 125.257C-26.6768 111.864 12.083 117.227 45.551 128.747C113.006 151.998 187.703 214.894 183.988 292.736C181.9 336.482 148.855 379.045 110.263 397.611C67.4675 418.199 20.8611 398.247 -13.0906 370.31C-50.2706 339.687 -78.4404 296.94 -95.7838 252.292C-111.101 212.891 -116.675 166.487 -101.338 126.196C-73.2323 52.453 18.9278 59.9933 77.6743 87.3337C147.095 119.64 207.629 194.547 198.379 274.93C190.393 344.363 116.006 371.074 54.9569 359.99C-23.9273 345.648 -78.5669 274.506 -83.1845 196.131C-85.0114 164.996 -75.2516 133.619 -49.5241 114.495C-26.658 97.4991 3.55832 93.8852 31.1571 97.1346C99.8429 105.251 157.945 158.345 170.714 226.294C177.177 260.644 174.076 301.754 151.829 330.166C133.991 352.924 105.322 362.025 77.3168 362.501C11.3411 363.606 -56.1546 323.076 -93.9467 270.581C-113.978 242.728 -125.318 209.291 -123.659 174.846C-121.902 138.164 -104.552 98.0916 -75.9366 74.5007C-18.1955 26.8075 64.3233 71.6278 109.824 114.559C158.081 160.066 202.693 238.678 165.242 303.625C148.278 333.05 116.08 354.196 81.9983 355.783C49.7366 357.285 19.08 341.395 -5.41561 321.709C-57.2438 279.982 -97.0223 209.194 -94.0555 141.493C-92.611 108.837 -77.6571 79.0934 -50.5448 60.4236C-22.2687 40.933 14.8135 34.3092 48.3307 40.2289C111.37 51.3824 160.494 105.024 186.484 160.744C206.244 203.105 221.951 274.456 173.838 304.611C146.511 321.758 109.942 316.418 80.5209 308.846C21.6297 293.677 -30.1494 255.362 -62.5361 203.957C-90.5672 159.446 -106.786 86.4905 -69.6156 42.0766C-39.71 6.34019 14.9401 19.5737 50.8413 37.0729C93.2965 57.7792 133.213 93.0682 147.861 139.076C159.202 174.729 151.474 213.346 130.723 243.932C110.898 273.17 78.4553 294.137 43.107 297.811C1.24321 302.163 -35.3662 278.4 -59.9854 246.287C-88.0671 209.691 -99.5789 163.753 -92.8423 118.168C-86.2218 73.3272 -58.4292 34.0337 -12.7934 23.5411C37.9489 11.8918 89.1715 44.9661 124.121 78.4524C159.9 112.754 190.522 161.754 176.59 212.831C163.201 261.928 112.274 289.806 64.4206 293.577C14.2218 297.546 -28.2433 272.781 -56.5699 232.62C-84.1241 193.571 -100.119 140.886 -89.0834 93.4795C-80.3853 56.0541 -48.2694 27.3622 -11.505 18.217C46.5967 3.76779 100.057 48.294 130.978 92.7449C161.393 136.463 185 199.698 164.611 252.225C139.706 316.354 47.7743 317.632 -5.49294 293.674C-62.7551 267.91 -88.5095 201.541 -74.8684 142.192C-69.3292 118.09 -56.2483 94.2057 -34.155 81.7484C-8.45517 67.2548 21.4306 76.3305 44.8447 90.8648C86.4386 116.73 120.747 161.182 140.946 205.122C153.017 231.405 159.686 260.93 155.237 289.785C150.467 320.775 129.988 345.84 104.168 362.397C50.556 396.813 -14.1189 371.756 -53.3765 328.092C-82.911 295.248 -96.4819 252.326 -98.1089 208.772C-99.5605 169.678 -90.6385 126.631 -63.289 97.2366C-31.3475 62.9145 19.8992 64.496 59.2669 84.0387C108.932 108.689 146.985 158.401 166.304 209.442C182.612 252.499 181.307 300.245 155.586 339.336C116.694 398.525 35.9921 393.155 -18.9549 361.815C-48.4207 345.006 -73.089 319.615 -87.5514 288.847C-103.727 254.456 -103.091 215.558 -90.1809 180.267C-76.3432 142.433 -49.7706 106.498 -11.2128 91.7163C20.8894 79.4057 56.647 84.2546 87.9316 96.5231C150.303 120.981 211.726 182.737 216.512 252.377C218.983 288.158 201.204 319.507 173.261 340.847C128.369 375.132 69.2433 375.069 17.9991 356.483C-32.5038 338.163 -80.4101 299.287 -101.489 249.004C-119.705 205.531 -111.955 154.641 -86.7347 115.664C-60.7424 75.5588 -14.9093 52.7719 32.6771 61.0691C82.3972 69.7371 128.364 108.446 149.357 153.624C173.012 204.561 153.996 256.945 109.828 288.905C68.521 318.763 15.4237 325.406 -32.036 306.879C-55.3217 297.8 -75.5887 281.742 -89.7031 261.14C-103.866 240.462 -108.649 215.759 -110.947 191.26C-114.029 158.329 -109.895 122.322 -88.3407 95.9357C-50.9144 50.1084 18.6367 59.6383 65.0876 84.3666C124.214 115.948 161.167 178.233 154.619 245.681C149.713 296.31 116.047 335.424 69.2463 353.534C24.0533 371.032 -33.4421 365.951 -69.6196 331.666C-103.821 299.267 -113.2 244.737 -106.73 199.943C-103.407 176.938 -94.7162 154.474 -79.9944 136.352C-67.2179 120.602 -49.5499 111.159 -30.7254 104.604C23.1129 85.8531 73.1562 110.312 101.552 157.496C127.665 200.869 136.896 258.708 121.971 307.423C115.235 329.331 102.114 349.406 82.0537 361.161C58.2081 375.148 29.0799 373.483 3.27914 366.639C-43.4696 354.253 -83.7095 326.848 -107.549 284.272C-135.127 235.015 -135.467 170.428 -96.993 126.79C-60.5626 85.4464 -2.36094 93.5054 43.0272 113.355C86.7126 132.496 129.596 164.265 157.829 203.005C183.283 237.925 198.82 283.156 197.688 326.475C196.409 375.292 163.313 415.614 113.558 420.936C59.7331 426.692 2.82764 394.936 -37.4455 362.278C-56.163 347.101 -73.6698 328.987 -84.8502 307.479C-95.7434 286.5 -100.014 262.231 -101.065 238.831C-103.158 191.557 -89.4301 138.434 -53.0727 106.027C-10.6181 68.2028 53.368 82.7381 98.7655 106.671C144.187 130.63 184.107 170.276 196.403 221.261C204.616 255.326 196.117 289.395 170.134 313.293C118.27 361.016 28.056 358.971 -33.4911 334.382C-69.3869 320.02 -97.0004 294.912 -113.133 259.701C-129.218 224.59 -126.732 185.384 -103.97 153.971C-58.165 90.7774 40.9417 79.2766 106.797 114.044C147.664 135.586 178.385 177.842 187.7 222.886C196.542 265.678 179.17 307.891 147.279 336.538C115.44 365.111 71.0443 378.096 28.7176 374.098C-19.1018 369.58 -60.4012 340.534 -86.1487 300.878C-127.239 237.605 -134.438 139.679 -82.5599 80.0554C-24.2933 13.1044 87.723 42.8926 140.755 101.152C190.577 155.88 194.613 243.652 143.531 298.812C114.495 330.162 72.149 343.914 30.4078 346.102C-28.3386 349.16 -83.9322 318.902 -121.696 275.27C-155.55 236.157 -172.703 178.392 -155.901 128.126C-143.232 90.2404 -108.049 68.1391 -70.6099 60.0047C14.8049 41.4542 109.133 86.0876 149.066 163.401C184.2 231.348 168.564 326.851 98.6037 366.233C61.1769 387.314 16.5644 383.065 -21.7038 366.734C-74.4553 344.231 -117.799 299.506 -135.036 244.428C-153.135 186.643 -127.268 122.908 -71.9693 96.6961C-24.2222 74.0761 32.5362 92.2108 69.6397 126.292C74.0093 130.298 78.0216 134.693 81.9072 139.186C83.1703 140.633 85.2341 138.538 83.9958 137.091Z" fill="#F69618"/>
</g>
<defs>
<clipPath id="clip0">
<rect width="426.479" height="405.259" fill="white" transform="translate(-180 426.375) rotate(-88.733)"/>
</clipPath>
</defs>
</svg>
