<svg width="320" height="26" viewBox="0 0 320 26" fill="none" xmlns="http://www.w3.org/2000/svg">
<path d="M0.263794 18.3001C0.162435 18.5045 0.304337 18.7931 0.669229 18.8893C0.831403 18.9374 1.01385 18.9734 1.17602 19.0215C1.27738 19.0456 1.37874 19.0696 1.4801 19.0817C1.68282 19.0937 1.88553 19.1177 2.08825 19.1298C2.31124 19.1418 2.5545 19.0696 2.71668 18.9734C2.73695 18.9614 2.75722 18.9494 2.75722 18.9374C20.049 18.7931 37.3611 18.6368 54.6529 18.4925C55.8489 18.4805 57.045 18.4564 58.2207 18.4324C62.0724 18.3602 65.9443 18.2761 69.7959 18.2039C70.4243 18.1919 71.0528 18.1799 71.7015 18.1679C72.8367 18.1799 73.9719 18.1799 75.1071 18.1799C78.7966 18.1919 82.5063 18.2039 86.1958 18.216C92.8854 18.24 99.5549 18.252 106.245 18.2761C115.995 18.3122 125.766 18.3242 135.537 18.3362C131.564 18.5406 127.591 18.745 123.617 18.9494C121.306 19.0696 118.995 19.1899 116.684 19.3101C112.934 19.3221 109.184 19.3462 105.434 19.3582C101.846 19.3702 98.2777 19.3702 94.6896 19.3702C93.1084 19.3702 91.507 19.3702 89.9258 19.3702C88.2229 19.3702 86.5404 19.3702 84.8376 19.3702C80.9657 19.3702 77.0937 19.3702 73.2218 19.3822C69.2283 19.3943 65.255 19.4063 61.2615 19.4063C58.1397 19.4183 55.0178 19.4183 51.896 19.4303C48.3281 19.4544 44.74 19.4905 41.1722 19.5265C40.8478 19.5265 40.564 19.6949 40.564 19.8872C40.564 20.0916 40.8478 20.2479 41.1722 20.2479C41.8209 20.272 42.4493 20.296 43.098 20.296C43.4832 20.296 43.8886 20.296 44.2738 20.296C45.632 20.296 47.0105 20.284 48.3687 20.284C49.7471 20.284 51.1459 20.272 52.5244 20.26C57.0855 20.2359 61.6467 20.1998 66.1875 20.1758C67.2214 20.1758 68.235 20.1758 69.2688 20.1758C74.3368 20.1758 79.4047 20.1878 84.4727 20.1878C89.3379 20.1998 94.2031 20.2119 99.0683 20.2119C91.1826 20.6327 83.2969 21.0415 75.4112 21.4623C61.5859 22.1837 47.7808 22.9292 33.9554 23.6867C33.4284 23.7107 32.9621 23.7949 32.577 24.0233C32.2121 24.2398 32.0094 24.5403 32.0094 24.8409C32.0094 25.1535 32.2121 25.4421 32.577 25.6585C32.9216 25.8629 33.4689 26.0313 33.9554 25.9952C50.1729 25.1175 66.3903 24.2518 82.6279 23.4101C97.6493 22.6286 112.691 21.835 127.712 21.0535C134.564 20.6928 141.416 20.3682 148.248 20.0315C152.424 19.9594 156.579 19.8993 160.755 19.8271C164.465 19.767 168.175 19.7069 171.884 19.6468C173.02 19.6227 174.155 19.6107 175.29 19.5746C182.791 19.3462 190.311 19.1057 197.832 18.8773C201.522 18.769 205.231 18.6488 208.941 18.5406C210.097 18.5045 211.272 18.4685 212.428 18.4324C214.252 18.3602 216.077 18.3001 217.901 18.228C220.841 18.2039 223.76 18.1799 226.699 18.1438C231.402 18.0957 236.105 18.0597 240.808 17.9875C252.951 17.8072 265.094 17.6268 277.257 17.5066C278.575 17.4946 279.892 17.4825 281.21 17.5547C281.94 17.6268 282.649 17.735 283.359 17.8793C283.805 17.9635 284.352 17.9034 284.737 17.7711C285.143 17.6268 285.447 17.3984 285.568 17.1338C285.69 16.8573 285.629 16.5567 285.386 16.3162C285.143 16.0638 284.758 15.9315 284.312 15.8233C284.089 15.7752 283.866 15.7271 283.643 15.679C291.427 15.3784 299.211 15.0898 306.996 14.7893C308.293 14.7412 309.591 14.7171 310.888 14.681C312.104 14.645 313.3 14.5969 314.517 14.5247C315.003 14.4887 315.469 14.4526 315.956 14.4045C316.645 14.3444 317.314 14.2362 318.003 14.14C318.388 14.0919 318.733 13.9115 318.936 13.7192C319.159 13.4907 319.179 13.2623 319.098 13.0098C319.017 12.7332 318.733 12.5409 318.449 12.3244C318.388 12.2884 318.348 12.2403 318.307 12.2042C318.105 12.084 317.882 12.0118 317.618 11.9637C317.476 11.9397 317.334 11.9277 317.213 11.9277C316.929 11.9277 316.665 11.9758 316.422 12.0599C316.098 12.1802 315.834 12.3605 315.713 12.5769C315.692 12.5769 315.692 12.5769 315.672 12.5769C315.226 12.637 314.8 12.6851 314.354 12.7212C311.719 12.9016 309.084 12.9497 306.448 13.0699C304.523 13.1541 302.597 13.2502 300.671 13.3344C298.259 13.4426 295.826 13.5629 293.414 13.6711C287.19 13.9596 280.947 14.2482 274.723 14.5247C263.047 15.0418 251.37 15.5828 239.693 16.0638C238.295 16.1239 236.876 16.184 235.477 16.2441C233.936 16.2682 232.396 16.2802 230.855 16.3042C227.591 16.3523 224.307 16.4004 221.043 16.4365C225.098 16.2441 229.152 16.0517 233.207 15.8594C237.281 15.667 241.376 15.4746 245.451 15.2822C251.715 14.9937 257.958 14.681 264.222 14.4165C270.121 14.164 276.02 13.8995 281.92 13.647C284.758 13.5268 287.596 13.4066 290.454 13.2863C291.934 13.2262 293.393 13.1541 294.873 13.106C295.867 13.0699 296.84 13.0338 297.813 12.9857C298.745 12.9376 299.678 12.8414 300.63 12.7573C301.016 12.7212 301.38 12.6851 301.745 12.637C302.171 12.5769 302.556 12.4567 302.962 12.3605C303.428 12.2403 303.772 11.9998 304.056 11.7714C304.259 11.615 304.36 11.4467 304.502 11.2664C304.583 11.1582 304.644 11.062 304.725 10.9538C304.746 10.9297 304.746 10.9057 304.746 10.8816C305.638 10.6772 306.306 10.1482 306.306 9.57105C306.306 8.78952 305.232 8.17632 303.935 8.16429C302.191 8.14025 300.448 8.12822 298.705 8.12822C298.299 8.12822 297.894 8.18834 297.549 8.30858C296.454 8.33262 295.38 8.34465 294.285 8.36869C292.42 8.40477 290.555 8.44084 288.69 8.46488C289.582 8.38072 290.474 8.29655 291.366 8.21239C293.92 8.18834 296.475 8.15227 299.029 8.1162C299.759 8.10418 300.407 7.89978 300.813 7.57514C300.874 7.57514 300.934 7.57514 301.016 7.58716C301.38 7.62324 301.725 7.65931 302.07 7.7074C302.82 7.81561 303.61 7.61121 303.914 7.19039C304.441 7.17836 304.989 7.16634 305.516 7.14229C306.083 7.11825 306.57 7.02206 306.975 6.78159C307.361 6.55314 307.584 6.24053 307.584 5.91589C307.584 5.65138 307.421 5.39888 307.158 5.19448C307.198 5.19448 307.239 5.19448 307.28 5.19448C308.78 5.26662 310.28 5.30269 311.78 5.39888C312.652 5.48305 313.543 5.57924 314.395 5.75959C314.435 5.84375 314.476 5.93994 314.517 6.03613C314.517 6.08422 314.537 6.14434 314.537 6.19244C314.577 6.49302 314.719 6.75754 315.084 6.97396C315.429 7.17836 315.915 7.2986 316.402 7.2986C316.888 7.2986 317.375 7.17836 317.719 6.97396C318.044 6.78159 318.307 6.46898 318.267 6.19244C318.226 5.92792 318.165 5.6634 318.084 5.38686C318.003 5.13437 317.78 4.88187 317.598 4.65342C317.517 4.59331 317.436 4.53319 317.355 4.46105C317.192 4.29272 316.969 4.17248 316.706 4.07629C316.361 3.93201 316.037 3.8238 315.632 3.73964C314.821 3.55928 313.969 3.47512 313.138 3.37893C311.881 3.23465 310.584 3.19858 309.307 3.16251C307.3 3.10239 305.273 2.99418 303.266 2.89799C300.124 2.75371 297.002 2.62145 293.86 2.50121C290.94 2.393 288.021 2.26074 285.102 2.17658C280.947 2.04432 276.771 1.92408 272.615 1.80385C269.939 1.71968 267.243 1.62349 264.567 1.56338C261.465 1.49124 258.344 1.41909 255.242 1.34695C250.458 1.23874 245.694 1.11851 240.91 1.01029C238.862 0.9622 236.795 0.890059 234.747 0.866012C227.348 0.769823 219.949 0.673635 212.529 0.577447C208.272 0.517329 203.995 0.469235 199.738 0.409117C198.42 0.409117 197.143 0.373047 195.866 0.373047C195.724 0.373047 195.582 0.373047 195.44 0.373047C181.432 0.457212 167.425 0.529353 153.417 0.625541C152.971 0.625541 152.545 0.649588 152.099 0.661612C150.903 0.697682 149.707 0.733753 148.511 0.769823C144.538 0.890059 140.565 0.99827 136.571 1.11851C127.165 1.39505 117.759 1.67159 108.353 1.93611C105.717 2.00825 103.082 2.09241 100.427 2.16455C99.6157 2.1886 98.8251 2.23669 98.0142 2.28479C95.9262 2.22467 93.8382 2.17658 91.7502 2.11646C84.8376 1.93611 77.9046 1.74373 70.992 1.56338C69.3094 1.51528 67.6471 1.47921 65.9645 1.43112C64.1806 1.38302 62.3967 1.35898 60.6331 1.33493C56.8017 1.28684 52.9704 1.25076 49.139 1.20267C49.1187 1.20267 49.1187 1.20267 49.0984 1.20267C48.1862 1.20267 47.4159 1.68361 47.4159 2.22467C47.4159 2.78978 48.2065 3.23465 49.139 3.24667C52.9704 3.29476 56.8017 3.33084 60.6331 3.37893C62.417 3.40298 64.2009 3.42702 65.9645 3.47512C67.6268 3.52321 69.3094 3.57131 70.992 3.60738C71.8434 3.63142 72.6948 3.65547 73.5462 3.67952C64.8902 4.17248 56.2138 4.66545 47.5578 5.15841C44.7603 5.31472 41.9831 5.47102 39.1856 5.63935C36.6719 5.78364 34.1582 5.95196 31.6445 6.13232C28.0361 6.09625 24.448 6.06018 20.8396 6.02411C20.049 6.02411 19.3598 6.44493 19.3598 6.93789C19.3598 6.97396 19.3801 7.01004 19.3801 7.05813C17.961 7.16634 16.542 7.27455 15.1027 7.37074C14.9608 7.37074 14.7986 7.39479 14.6365 7.40681C14.3324 7.45491 14.0689 7.53907 13.8459 7.67133C13.5215 7.87573 13.3391 8.14025 13.3391 8.41679C13.3391 8.69333 13.5215 8.96987 13.8661 9.16225C14.1702 9.3426 14.677 9.49891 15.123 9.47486C19.9679 9.12618 24.8129 8.75345 29.6578 8.39274C31.6647 8.24846 33.6716 8.09215 35.6988 7.95989C47.4362 8.06811 59.1735 8.16429 70.9109 8.24846C81.0467 8.33262 91.1826 8.38072 101.318 8.44084C102.717 8.45286 104.116 8.45286 105.515 8.46488C94.9734 8.76547 84.4118 9.06606 73.8705 9.36665C67.4241 9.547 60.9574 9.73938 54.511 9.91973C45.5509 10.1722 36.5908 10.5089 27.6104 10.8215C27.0428 10.8455 26.5157 10.9538 26.09 11.1942C25.6846 11.4347 25.4616 11.7593 25.4616 12.096C25.4616 12.7573 26.4346 13.4066 27.6104 13.3705C35.0096 13.118 42.3885 12.8535 49.7877 12.613C43.7467 12.8535 37.7057 13.0939 31.6647 13.3464C27.3469 13.5148 23.0898 13.8634 18.7922 14.152C18.4273 14.1761 18.1232 14.2242 17.8597 14.3805C17.6164 14.5247 17.4745 14.7291 17.4745 14.9335C17.4745 15.1379 17.6164 15.3423 17.8597 15.4866C18.0827 15.6189 18.4678 15.7391 18.7922 15.7151C23.1101 15.4265 27.4279 15.0898 31.7864 14.9095C35.0299 14.7772 38.2733 14.657 41.5168 14.5247C49.3012 14.2121 57.0653 13.9115 64.8496 13.611C65.8835 13.5749 66.9173 13.5148 67.9309 13.5027C70.5257 13.4787 73.1205 13.4546 75.695 13.4306C79.9723 13.3945 84.2497 13.3464 88.527 13.3104C85.4052 13.4787 82.2833 13.647 79.1615 13.8154C75.8369 13.9957 72.4921 14.1881 69.1472 14.3203C62.9238 14.5728 56.6801 14.8133 50.4567 15.0658C50.335 14.8734 50.0309 14.7051 49.6661 14.7051C49.6458 14.7051 49.6458 14.7051 49.6255 14.7051C41.1722 15.0057 32.7189 15.3063 24.2656 15.6309C23.9412 15.6429 23.6574 15.7271 23.475 15.8954C23.3939 15.9676 23.3736 16.0517 23.3736 16.1359C23.2925 16.1359 23.1911 16.1359 23.1101 16.1479C23.1303 16.0998 23.1506 16.0517 23.1506 16.0036C23.1506 15.7632 22.7857 15.5227 22.3803 15.5347C18.9138 15.691 15.4473 15.8594 12.0011 16.0157C8.3725 16.184 4.76412 16.4365 1.13548 16.689C0.851675 16.713 0.608414 16.7611 0.44624 16.9174C0.263794 17.1098 0.344881 17.3262 0.56787 17.4825C0.770588 17.6148 0.932762 17.7711 1.17602 17.8673C1.17602 17.8673 1.17602 17.8673 1.19629 17.8673C1.17602 17.8673 1.13548 17.8673 1.11521 17.8673C0.730044 17.9154 0.385424 18.0717 0.263794 18.3001ZM193.21 15.4385C183.683 15.9195 174.175 16.4004 164.647 16.8693C162.904 16.8693 161.161 16.8693 159.417 16.8814C153.762 16.8934 148.106 16.9174 142.43 16.9174C138.274 16.9174 134.118 16.9174 129.942 16.9294C131.544 16.8934 133.145 16.8573 134.767 16.8212C147.416 16.5447 160.046 16.2321 172.695 15.9435C178.939 15.7992 185.183 15.6309 191.426 15.4746C192.035 15.4626 192.622 15.4506 193.21 15.4385ZM240.646 9.45081C234.626 9.57105 228.625 9.73938 222.604 9.88366C208.576 10.2203 194.548 10.593 180.52 10.9538C175.513 11.086 170.506 11.2062 165.519 11.3505C162.377 11.4467 159.255 11.5309 156.113 11.6271C154.491 11.615 152.89 11.615 151.268 11.603C159.397 11.2303 167.546 10.8576 175.675 10.4969C177.216 10.4247 178.777 10.3886 180.338 10.3285C184.575 10.1842 188.791 10.04 193.008 9.88366C197.265 9.73938 201.542 9.58307 205.799 9.43879C209.347 9.40272 212.894 9.35462 216.442 9.30653C224.449 9.18629 232.456 9.06606 240.484 8.94582C244.701 8.88571 248.917 8.83761 253.134 8.74142C255.546 8.69333 257.938 8.63321 260.35 8.58512C260.634 8.76547 260.999 8.90975 261.405 8.95785C261.506 8.96987 261.628 8.98189 261.729 8.99392C254.715 9.15022 247.681 9.29451 240.646 9.45081ZM152.809 2.75371C153.944 2.71764 155.059 2.72966 156.194 2.71764C160.086 2.69359 163.958 2.66954 167.85 2.64549C176.466 2.58538 185.081 2.53728 193.677 2.47716C194.812 2.46514 195.967 2.46514 197.103 2.47716C200.61 2.52526 204.096 2.56133 207.603 2.60942C216.158 2.71764 224.692 2.82585 233.247 2.93406C234.585 2.94608 235.943 2.98215 237.281 3.0062C241.599 3.10239 245.917 3.2106 250.235 3.30679C256.195 3.45107 262.155 3.57131 268.115 3.75166C274.885 3.95606 281.676 4.12439 288.447 4.38891C290.717 4.47307 292.988 4.56926 295.279 4.65342C296.596 4.70152 297.894 4.73759 299.211 4.80973C299.515 4.82175 299.82 4.83378 300.103 4.85782C298.015 4.91794 295.927 4.96604 293.839 5.02615C293.576 5.00211 293.292 4.97806 293.028 4.96604C292.522 4.92996 292.035 4.92996 291.528 4.92996C291.508 4.92996 291.508 4.92996 291.488 4.92996C290.474 4.92996 289.461 4.97806 288.447 5.01413C288.204 5.02615 287.94 5.02615 287.697 5.03818C287.231 4.67747 286.501 4.437 285.69 4.44902C281.413 4.48509 277.135 4.49712 272.838 4.60533C269.209 4.70152 265.581 4.79771 261.952 4.88187C257.066 5.00211 252.161 5.12234 247.275 5.24258C241.903 5.37484 236.551 5.50709 231.179 5.63935C229.72 5.67542 228.24 5.71149 226.76 5.74756C223.334 5.73554 219.929 5.73554 216.503 5.72352C213.198 5.71149 209.874 5.71149 206.569 5.69947C205.576 5.69947 204.563 5.69947 203.569 5.67542C197.569 5.53114 191.589 5.37484 185.588 5.23055C179.649 5.08627 173.709 4.94199 167.79 4.78568C167.121 4.82175 166.472 4.79771 165.803 4.77366C163.573 4.68949 161.323 4.59331 159.093 4.50914C149.788 4.13641 140.484 3.76368 131.159 3.39095C138.375 3.17453 145.592 2.97013 152.809 2.75371ZM78.6141 6.481C73.5867 6.44493 68.5593 6.40886 63.5117 6.37279C65.8632 6.24053 68.2147 6.10827 70.5662 5.97601C78.8979 5.50709 87.2499 5.02615 95.5816 4.54521C96.5749 4.48509 97.5885 4.437 98.6021 4.37688C103.001 4.49712 107.38 4.61735 111.779 4.73759C113.968 4.79771 116.137 4.86985 118.326 4.96604C131.969 5.53114 145.612 6.09625 159.235 6.67338C159.924 6.69742 160.593 6.73349 161.282 6.75754C155.545 6.74552 149.829 6.74552 144.092 6.73349C133.49 6.72147 122.888 6.66135 112.265 6.62528C101.075 6.57719 89.8447 6.56516 78.6141 6.481ZM93.0882 11.579C96.7573 11.4587 100.406 11.3505 104.075 11.2303C108.191 11.098 112.306 10.9417 116.441 10.8455C121.367 10.7253 126.293 10.6051 131.24 10.4848C137.443 10.3766 143.666 10.2684 149.869 10.1602C146.362 10.3285 142.835 10.4848 139.328 10.6532C135.375 10.8335 131.422 11.0018 127.469 11.2183C125.746 11.3145 124.023 11.3986 122.3 11.4948C122.178 11.4948 122.077 11.4948 121.955 11.4948C118.326 11.4828 114.718 11.4708 111.089 11.4587C109.934 11.4587 108.779 11.4347 107.623 11.4467C102.129 11.5068 96.656 11.567 91.1623 11.6391C91.7908 11.615 92.4395 11.591 93.0882 11.579ZM49.362 16.7611C57.2071 16.4485 65.0523 16.1239 72.8975 15.7992C77.8235 15.5948 82.7496 15.3784 87.6756 15.2221C96.433 14.9335 105.19 14.645 113.948 14.3684C118.509 14.2242 123.07 14.0558 127.651 13.9476C134.645 13.7793 141.639 13.611 148.633 13.4306C155.829 13.4907 163.005 13.5508 170.202 13.623C174.56 13.659 178.919 13.7192 183.277 13.7312C188.71 13.7552 194.143 13.7793 199.596 13.8033C192.359 14.0077 185.122 14.2121 177.885 14.4165C164.708 14.7893 151.532 15.1259 138.355 15.4626C124.996 15.8113 111.637 16.1239 98.298 16.4605C93.6963 16.5687 89.0743 16.6649 84.4727 16.7611C81.9184 16.8212 79.3439 16.8693 76.7897 16.9294C75.0868 16.9294 73.384 16.9294 71.7015 16.9294C70.1405 16.9294 68.5796 16.9054 67.0187 16.8934C62.9846 16.8693 58.9505 16.8333 54.9164 16.8092C52.9704 16.7972 51.0243 16.7852 49.0782 16.7731C49.139 16.7611 49.2403 16.7611 49.362 16.7611ZM26.982 17.6028C27.1239 17.6268 27.2455 17.6388 27.3874 17.6629C26.4954 17.6749 25.6238 17.6749 24.7318 17.6869C25.4819 17.6629 26.2319 17.6388 26.982 17.6028ZM7.0751 17.2541C7.0751 17.3623 7.11565 17.4705 7.19673 17.5667C6.36559 17.5787 5.53445 17.5547 4.68304 17.5066C4.48032 17.4825 4.25733 17.4705 4.05461 17.4465C5.0682 17.3743 6.08179 17.3142 7.0751 17.2541Z" fill="#FEACA1"/>
</svg>
