<svg width="280" height="60" viewBox="0 0 280 60" fill="none" xmlns="http://www.w3.org/2000/svg">
<path d="M1.12903 47.609C1.23001 47.9104 1.47235 48.3726 1.85608 48.3726C4.72394 48.3325 7.61197 48.2722 10.4798 48.1918C13.3881 48.1114 16.2761 48.0712 19.1844 48.0913C24.8191 48.1114 30.474 48.3927 36.0885 48.7344C35.1191 48.855 34.1699 48.9554 33.2004 49.076C29.7469 49.4779 26.2934 50.0004 22.8398 50.2617C21.002 50.4024 19.144 50.5028 17.3061 50.6837C16.3771 50.7842 15.448 50.8847 14.519 51.0454C13.5294 51.2263 12.5398 51.4875 11.5704 51.7287C11.2473 51.7488 11.0251 51.9096 10.8434 52.1708C10.5606 52.5526 10.4192 53.0751 10.3586 53.5775C9.36902 53.8589 9.14685 55.2857 9.12668 56.1499C9.10648 56.6925 9.18726 57.215 9.34882 57.7174C9.51038 58.1595 9.83356 58.8025 10.399 58.8226C13.3881 58.903 16.3771 59.1643 19.3661 59.2447C19.7094 59.2648 20.073 59.2648 20.4163 59.2648C22.9812 59.305 25.5663 59.2447 28.1312 59.1442C33.8669 58.9432 39.6026 58.6619 45.3383 58.3604C48.0042 58.2198 50.6701 58.0389 53.336 57.9183C56.5875 57.7776 59.8391 57.6772 63.1109 57.6169C68.5638 57.4963 74.037 57.5164 79.4899 57.4963C85.7507 57.4963 91.9913 57.436 98.2521 57.2351C104.048 57.0542 109.845 56.7929 115.621 56.5518C121.437 56.3106 127.254 56.0695 133.07 55.8082C139.028 55.547 144.986 55.3862 150.964 55.2254C153.973 55.1451 157.003 55.1451 160.012 55.125C162.859 55.0848 165.727 55.125 168.575 55.125C174.189 55.1451 179.824 55.1853 185.439 55.2254C196.789 55.3058 208.119 55.3058 219.469 55.3259C225.71 55.3259 231.93 55.3259 238.171 55.3058C241.342 55.3058 244.533 55.2255 247.703 55.1853C250.43 55.1451 253.136 55.0245 255.863 54.924C258.751 54.8235 261.639 54.703 264.547 54.6025C266.264 54.5422 267.98 54.4618 269.717 54.4015C270.464 54.3613 271.212 54.3211 271.959 54.301C272.625 54.2809 273.312 54.2407 273.999 54.2006C274.483 54.1604 274.968 54.1001 275.433 54.0398C275.978 53.9594 276.503 53.7182 277.008 53.5575C277.331 53.3364 277.533 53.0149 277.654 52.6531C277.836 52.1708 277.937 51.6684 277.937 51.1459C277.957 50.6234 277.876 50.121 277.715 49.6186C277.634 49.4378 277.533 49.2368 277.452 49.0559C277.291 48.7545 277.028 48.5937 276.705 48.5535C276.119 48.3727 275.534 48.1918 274.928 48.0913C274.584 48.1114 274.322 48.2722 274.16 48.5736C274.1 48.654 274.039 48.7545 273.978 48.855C273.655 48.855 273.352 48.855 273.029 48.855C272.726 48.855 272.423 48.855 272.12 48.855C271.434 48.855 270.747 48.855 270.06 48.8751C268.283 48.8952 266.526 48.8952 264.749 48.9153C262.83 48.9354 260.912 48.9354 258.993 48.9354C259.195 48.9153 259.397 48.9153 259.579 48.8952C264.103 48.5937 268.647 48.3124 273.171 47.9908C273.898 47.9105 274.463 47.5688 274.867 46.9257C275.433 46.1621 275.756 45.1774 275.937 44.1927C276.725 44.2128 277.513 44.2329 278.321 44.253C278.866 44.2731 279.007 43.3084 279.007 42.9467C279.007 42.5649 278.927 41.6204 278.361 41.6003C277.594 41.5802 276.846 41.5601 276.079 41.54C276.018 40.6959 275.877 39.8921 275.614 39.0681C275.412 38.6662 275.21 38.2442 275.029 37.8423C274.665 37.1992 274.1 36.8174 273.373 36.737C270.929 36.9179 268.485 37.0585 266.062 37.1992C266.708 37.0183 267.374 36.8174 268.021 36.6164C268.99 36.315 269.959 35.8528 270.828 35.3102C272.524 34.024 273.736 32.3761 274.423 30.3464C276.038 26.4478 276.362 21.7453 275.756 17.6055C275.453 15.1135 274.685 12.7824 273.393 10.6321C272.767 9.94882 272.141 9.26555 271.494 8.58229C270.02 7.59757 268.546 7.55738 267.031 8.46171C266.344 8.90382 265.637 9.24546 264.87 9.5268C261.316 10.3708 257.599 10.6723 253.964 10.8933C251.904 11.0139 249.844 11.0943 247.784 11.1345C245.886 11.1747 243.987 11.1747 242.089 11.1948C240.271 11.0943 238.433 11.0139 236.616 10.9134C237.524 10.7929 238.433 10.6924 239.342 10.5718C242.614 10.1699 245.865 9.62729 249.157 9.38613C250.894 9.24546 252.651 9.14497 254.388 8.96411C255.277 8.86363 256.145 8.76315 257.014 8.60238C257.963 8.42151 258.872 8.16027 259.801 7.91912C260.104 7.89902 260.326 7.73825 260.487 7.477C260.77 7.09517 260.891 6.57267 260.952 6.07027C261.881 5.78892 262.103 4.342 262.123 3.47786C262.144 2.93527 262.063 2.41276 261.901 1.91036C261.74 1.46824 261.457 0.825167 260.912 0.805071C258.084 0.724688 255.257 0.483538 252.429 0.383058C252.106 0.362958 251.763 0.362958 251.44 0.362958C248.996 0.322767 246.572 0.38305 244.149 0.483533C238.736 0.704586 233.304 0.965843 227.891 1.28738C225.366 1.42805 222.862 1.60892 220.338 1.72949C217.248 1.87017 214.178 1.97065 211.108 2.05103C205.958 2.17161 200.788 2.1716 195.618 2.1716C189.7 2.1917 183.783 2.25199 177.865 2.43286C172.392 2.61372 166.919 2.87497 161.446 3.13622C155.952 3.37737 150.459 3.63862 144.946 3.87978C139.311 4.14102 133.676 4.30179 128.041 4.48266C125.194 4.56304 122.326 4.56304 119.478 4.60323C116.772 4.64343 114.066 4.62333 111.38 4.60323C106.068 4.60323 100.736 4.56304 95.4246 4.52285C84.7005 4.46256 73.9764 4.46255 63.2522 4.46255C57.355 4.46255 51.4577 4.48265 45.5806 4.50275C42.5714 4.50274 39.5622 4.58313 36.553 4.62332C33.9881 4.66351 31.4232 4.80419 28.8381 4.88458C26.1116 4.98505 23.3649 5.10563 20.6385 5.2262C19.0026 5.30659 17.3869 5.36688 15.751 5.44726C15.0441 5.48745 14.3373 5.50755 13.6304 5.54774C12.9841 5.56784 12.3378 5.60803 11.6916 5.64822C11.2271 5.66832 10.7828 5.74871 10.3183 5.80899C9.81336 5.88938 9.30845 6.11043 8.82374 6.27121C8.54099 6.51236 8.31885 6.8138 8.21787 7.17553C8.05628 7.65784 7.9553 8.16024 7.9553 8.68274C7.93509 9.20524 8.0159 9.70765 8.15726 10.2101C8.23804 10.3909 8.31882 10.5919 8.4198 10.7727C8.58139 11.0742 8.82373 11.235 9.12668 11.2751C9.69217 11.456 10.2375 11.6168 10.803 11.7374C11.1261 11.6972 11.3684 11.5565 11.53 11.2551C11.5906 11.1747 11.6512 11.0742 11.6916 10.9737C11.9945 10.9737 12.2975 10.9737 12.6004 10.9737C12.8832 10.9737 13.1861 10.9737 13.4688 10.9737C14.1151 10.9737 14.7614 10.9737 15.4077 10.9536C17.084 10.9335 18.7602 10.9335 20.4365 10.9134C22.2542 10.8933 24.0516 10.8933 25.8693 10.8933C25.6875 10.9134 25.4855 10.9134 25.3038 10.9335C21.0222 11.2149 16.7406 11.4962 12.459 11.8177C11.7724 11.878 11.2271 12.2398 10.8635 12.8828C10.3182 13.6465 10.0153 14.6312 9.85373 15.6159C9.89411 15.6159 10.0557 15.6159 10.2779 15.6159C9.32865 16.0379 8.52082 16.7212 7.91492 17.7059C7.83414 17.8667 7.73316 18.0475 7.65238 18.2083C7.59177 18.2083 7.5514 18.2083 7.5716 18.2083C7.5918 18.2083 7.61197 18.2083 7.65238 18.2083C7.20804 19.0323 6.78394 19.8361 6.33963 20.6601C5.35001 23.2926 4.82489 26.0257 4.78452 28.8392C4.68354 31.6526 5.06726 34.4058 5.9155 37.0786C6.40021 38.1035 6.86472 39.1083 7.34943 40.1332C8.25827 41.7409 9.59119 42.6653 11.4088 42.9266C12.1157 42.8864 12.8226 42.8462 13.5294 42.806C12.7014 42.9668 11.8734 43.1275 11.0453 43.2682C9.63159 43.5295 8.19766 43.7706 6.78394 43.9515C5.16824 44.1525 3.57276 44.3735 1.95706 44.675C1.18961 44.8357 1.02805 45.8405 1.00784 46.4836C0.967439 46.8855 1.00784 47.2473 1.12903 47.609Z" fill="#2C2C2C"/>
</svg>
