<svg width="235" height="22" viewBox="0 0 235 22" fill="none" xmlns="http://www.w3.org/2000/svg">
<g clip-path="url(#clip0)">
<path d="M3.59796 20.1585C4.5883 19.7563 5.56048 19.3272 6.5054 18.8176C7.15957 18.469 7.36854 17.584 6.99603 16.9672C6.81431 16.6633 6.51448 16.4398 6.16922 16.3415C6.07837 16.3146 5.9966 16.3057 5.91482 16.2968C6.29643 15.9124 6.67803 15.528 7.0778 15.1525C7.95912 14.3122 8.83135 13.4809 9.71267 12.6406C9.96707 12.9713 10.2215 13.311 10.485 13.6418C11.4662 14.9022 12.4566 16.1627 13.4378 17.4142C14.5463 18.8266 15.6638 20.2748 16.9994 21.4816C17.3538 21.7944 17.7626 21.9911 18.2442 21.9911C18.7076 21.9911 19.1618 21.8123 19.4889 21.4816C19.816 21.1597 20.0068 20.7128 20.0068 20.2569C20.0068 19.944 19.9251 19.649 19.7615 19.3808C19.607 19.1216 19.3981 18.916 19.1346 18.7551C19.0892 18.7193 19.0437 18.6836 18.9983 18.6567C18.3623 18.1472 17.7899 17.5661 17.2175 16.994C16.9449 16.7348 16.6996 16.4398 16.4452 16.1716C16.2181 15.9302 16 15.6978 15.7819 15.4565C14.6281 14.1513 13.4923 12.8283 12.3566 11.5053C12.1386 11.246 11.9296 10.9868 11.7115 10.7365C13.5923 8.9397 15.4821 7.15184 17.372 5.36398C18.008 4.76504 17.9807 3.71915 17.372 3.12021C17.054 2.81627 16.6542 2.66431 16.2453 2.66431C15.8274 2.66431 15.4094 2.82521 15.0914 3.12021C13.2834 4.82762 11.4844 6.54397 9.67632 8.26032C9.52187 8.07259 9.37649 7.88486 9.22204 7.70608C8.81318 7.1876 8.40432 6.66912 7.98637 6.15064C7.67746 5.75731 7.36854 5.37292 7.05054 4.97959C6.6326 4.46111 6.16014 3.97839 5.69677 3.49566C5.47871 3.26324 5.15162 3.13809 4.83362 3.13809C4.61556 3.13809 4.38842 3.19173 4.2067 3.299C3.74333 3.55824 3.4435 4.16611 3.6343 4.67565C3.79784 5.12262 3.96139 5.56958 4.17945 5.98973C4.37025 6.3473 4.74276 6.54397 5.13345 6.57973C6.00568 7.75078 6.887 8.92182 7.76832 10.0929C7.70472 10.1554 7.64112 10.218 7.57752 10.2717C6.65986 11.1477 5.73311 12.0327 4.81545 12.9088C4.26122 13.4362 3.73424 13.9904 3.19818 14.5447C2.67121 15.09 2.16241 15.6531 1.66269 16.2252C1.1448 16.8242 0.690517 17.4857 0.208972 18.1204C0.072686 18.3707 0 18.621 0 18.8981C0 19.3004 0.163544 19.6848 0.454288 19.9708C0.617831 20.1317 0.781375 20.3284 0.981261 20.4267C1.13572 20.5072 1.29926 20.5787 1.46281 20.6323C1.65361 20.6681 1.83532 20.6949 2.02612 20.6949C2.58944 20.7038 3.10733 20.382 3.59796 20.1585Z" fill="#F69618"/>
<path d="M53.7423 11.6572C53.715 11.6572 53.6877 11.6572 53.6605 11.6662C50.2442 12.0148 46.8553 12.5333 43.4572 13.0428C40.3953 13.4987 37.3243 13.9814 34.2624 14.4642C32.7269 14.7055 31.1914 14.9469 29.6559 15.1793C29.3107 15.2329 28.9745 15.5369 28.811 15.8229C28.6202 16.1448 28.5656 16.5381 28.6656 16.8957C28.7655 17.2443 29.0018 17.5482 29.3198 17.727C29.6741 17.9326 30.0194 17.9326 30.41 17.87C37.4788 16.7705 44.5475 15.6352 51.6434 14.6877C52.3158 14.6072 52.9881 14.5267 53.6605 14.4552C54.0512 14.4105 54.3692 14.3301 54.6599 14.044C54.9234 13.7848 55.0688 13.4272 55.0688 13.0607C55.0688 12.6942 54.9234 12.3366 54.6599 12.0774C54.4328 11.8539 54.0693 11.6572 53.7423 11.6572ZM51.698 14.6698C51.7979 14.6519 51.8978 14.643 51.9978 14.6251H52.0069C51.9069 14.643 51.7979 14.6519 51.698 14.6698Z" fill="#F69618"/>
<path d="M69.6332 14.3032C69.079 14.7055 68.5157 15.1078 67.9615 15.51C67.4345 15.8855 66.9075 16.252 66.3896 16.6453C65.9989 16.9314 65.6173 17.2353 65.263 17.5661C65.1176 17.718 64.9904 17.8789 64.8632 18.0488C64.7178 18.2365 64.5816 18.4332 64.4362 18.6209C64.209 18.9159 64.1909 19.3986 64.2908 19.7473C64.3998 20.1316 64.6452 20.3909 64.9722 20.6144C65.2085 20.7753 65.4538 20.82 65.7264 20.8647C65.8536 20.8825 65.9808 20.9004 66.108 20.9183C66.3624 20.9183 66.6077 20.8557 66.8257 20.7306C67.1437 20.5429 67.38 20.2389 67.4799 19.8903C67.5072 19.8009 67.5253 19.7026 67.5253 19.6132C67.598 19.5506 67.6707 19.497 67.7434 19.4344C68.4612 18.9159 69.2153 18.4332 69.9422 17.9147C70.6054 17.4409 71.2778 16.9671 71.9501 16.4844C72.6679 15.9749 73.3856 15.4564 74.1125 14.9468C74.6849 14.5356 75.2573 14.1334 75.8297 13.7222C76.1205 13.9546 76.4203 14.187 76.711 14.4194C79.4549 16.5559 82.217 18.6567 84.9518 20.7932C85.0699 20.8825 85.188 20.9719 85.3061 21.0613C85.5787 21.2133 85.8695 21.2938 86.1875 21.2938C86.6418 21.2938 87.096 21.106 87.4231 20.7932C88.0773 20.1495 88.1227 18.9964 87.4231 18.3617C84.8609 16.0374 82.1352 13.9009 79.4458 11.7287C79.3186 11.6304 79.1914 11.5231 79.0642 11.4158C80.2726 10.5576 81.472 9.70841 82.6804 8.85023C83.0256 8.59993 83.2891 8.34069 83.4072 7.92055C83.5163 7.51828 83.4617 7.08025 83.2437 6.71374C83.0347 6.36511 82.6895 6.10587 82.2988 5.99859C82.1625 5.96284 82.008 5.94496 81.8536 5.94496C81.5719 5.94496 81.2903 6.00753 81.0722 6.1595C79.5549 7.23222 78.0466 8.31387 76.5293 9.38659C74.3397 7.62555 72.1409 5.85556 69.9512 4.09452C69.8149 3.99619 69.6877 3.89786 69.5515 3.79952C69.2516 3.62968 68.9245 3.54028 68.5702 3.54028C68.0523 3.54028 67.5526 3.74589 67.1892 4.10346C66.8257 4.46103 66.6168 4.95269 66.6168 5.46223C66.6168 5.92708 66.8076 6.51707 67.1892 6.82101C69.2153 8.44796 71.2414 10.0839 73.2766 11.7108C72.9132 11.9701 72.5588 12.2204 72.1954 12.4796C71.3414 13.0696 70.4873 13.6864 69.6332 14.3032Z" fill="#F69618"/>
<path d="M130.48 13.0964C130.526 13.1054 130.58 13.1232 130.626 13.1322C131.616 13.3557 132.652 12.8372 132.934 11.8449C133.188 10.9152 132.625 9.78888 131.625 9.57433C131.125 9.46706 130.635 9.42236 130.135 9.42236C130.008 9.42236 129.881 9.42236 129.754 9.4313C129.136 9.45812 128.527 9.53857 127.918 9.60115C127.464 9.64585 127.001 9.69948 126.537 9.75312C125.729 9.84251 124.929 9.9319 124.12 10.0124C122.303 10.209 120.486 10.4057 118.66 10.5934C114.535 11.0136 110.401 11.4158 106.267 11.8002C102.923 12.1131 99.5798 12.417 96.2272 12.721C95.7547 12.7657 95.364 12.8729 95.0188 13.2126C94.7008 13.5255 94.519 13.9635 94.519 14.4016C94.519 14.8396 94.7008 15.2776 95.0188 15.5905C95.3186 15.8855 95.8001 16.1179 96.2272 16.0821C105.158 15.2866 114.081 14.4552 123.003 13.6507C123.848 13.5791 124.693 13.4987 125.538 13.4272C126.237 13.3646 126.937 13.302 127.646 13.2394C128.6 13.1679 129.545 13.0607 130.48 13.0964Z" fill="#F69618"/>
<path d="M138.976 13.7938C138.694 14.0709 138.44 14.3659 138.185 14.6699C137.931 14.9738 137.695 15.2956 137.476 15.6353C137.267 15.9571 137.131 16.3415 136.986 16.6901C136.922 16.9047 136.922 17.1192 136.986 17.3338C137.068 17.6377 137.277 17.8969 137.549 18.0579C138.112 18.3797 138.921 18.2098 139.239 17.6198C139.394 17.3338 139.548 17.0656 139.739 16.7974C140.42 15.975 141.193 15.2152 141.974 14.4821C142.192 14.2765 142.419 14.0709 142.637 13.8653C142.837 14.1603 143.028 14.4643 143.228 14.7592C143.528 15.2152 143.864 15.6353 144.191 16.0733C144.591 16.6097 145.036 17.1103 145.472 17.6198C145.626 17.8076 145.817 17.9685 145.99 18.1383C146.162 18.3082 146.335 18.4691 146.517 18.63C147.135 19.1574 147.78 19.658 148.452 20.1228C148.761 20.3284 149.215 20.3642 149.561 20.2659C149.924 20.1675 150.233 19.9262 150.424 19.6133C150.614 19.2825 150.669 18.8803 150.569 18.5227C150.46 18.1383 150.224 17.8969 149.906 17.6735C149.77 17.5751 149.624 17.4768 149.488 17.3785C149.179 17.1282 148.87 16.8779 148.57 16.6186C148.216 16.3147 147.898 15.9839 147.562 15.6621C147.407 15.5102 147.262 15.3314 147.116 15.1705C146.962 15.0006 146.808 14.8397 146.662 14.6699C146.344 14.2855 146.026 13.91 145.708 13.5256L144.663 12.1579C144.645 12.1311 144.627 12.1043 144.609 12.0775C145.018 11.7109 145.436 11.3444 145.863 10.9869C146.78 10.227 147.68 9.4493 148.625 8.71627C148.825 8.85036 149.061 8.92188 149.306 8.92188C149.606 8.92188 149.988 8.80567 150.178 8.56431C150.524 8.13522 150.851 7.69719 151.178 7.25917C151.432 6.91947 151.387 6.38311 151.178 6.03448C150.951 5.65009 150.533 5.43555 150.106 5.43555C149.997 5.43555 149.888 5.44449 149.788 5.48024C149.533 5.55176 149.27 5.60539 149.015 5.67691C148.643 5.78418 148.289 5.98978 147.961 6.19539C147.362 6.5619 146.826 7.0178 146.281 7.44689C145.799 7.83128 145.308 8.22461 144.827 8.61794C144.354 9.00233 143.882 9.39566 143.4 9.78005C143.31 9.85157 143.219 9.94096 143.128 10.0214C142.882 9.67278 142.637 9.33309 142.392 8.98445C142.219 8.73415 142.038 8.49279 141.865 8.24249C141.601 7.87598 141.338 7.50053 141.065 7.14296C140.911 6.94629 140.756 6.75857 140.584 6.57084C140.438 6.41887 140.239 6.30266 140.066 6.17751C139.911 6.07024 139.721 6.0166 139.539 6.0166C139.23 6.0166 138.912 6.14175 138.703 6.34736C138.331 6.71387 138.294 7.24129 138.53 7.68825C138.703 8.02795 138.876 8.36764 139.066 8.6984C139.194 8.93976 139.412 9.10067 139.666 9.18112C139.902 9.54763 140.13 9.92308 140.366 10.2985C140.647 10.7276 140.92 11.1656 141.202 11.5947C141.22 11.6305 141.247 11.6662 141.265 11.6931C140.856 12.0685 140.438 12.435 140.03 12.8015C139.639 13.1234 139.312 13.463 138.976 13.7938Z" fill="#F69618"/>
<path d="M202.93 8.2156C202.676 8.07257 202.394 7.99211 202.094 7.99211C201.74 7.95636 201.377 7.93848 201.022 7.93848C200.286 7.93848 199.541 8.00999 198.805 8.07257C197.988 8.15302 197.179 8.22453 196.361 8.30499C194.535 8.49271 192.709 8.68044 190.883 8.8771C187.339 9.26149 183.796 9.68164 180.252 10.1018C180.043 10.1286 179.825 10.1554 179.616 10.1822C177.318 10.4772 175.019 10.7275 172.747 11.1477C171.593 11.3622 170.458 11.6394 169.34 11.9969C168.759 12.1846 168.186 12.4081 167.623 12.6495C167.078 12.8819 166.551 13.1143 166.051 13.4272C165.37 13.8563 165.097 14.7145 165.515 15.4207C165.915 16.0822 166.869 16.3772 167.55 15.9481C167.968 15.6799 168.413 15.4743 168.859 15.2777C170.003 14.8217 171.176 14.4821 172.375 14.2049C173.62 13.9189 174.892 13.7312 176.164 13.5613C178.671 13.2395 181.179 12.9534 183.678 12.6763C185.358 12.4886 187.03 12.283 188.711 12.131C190.446 11.9701 192.173 11.7913 193.908 11.6572C195.653 11.5231 197.406 11.3622 199.16 11.2728C200.141 11.2192 201.113 11.1566 202.094 11.2371C202.512 11.2728 202.976 11.0404 203.257 10.7633C203.566 10.4594 203.739 10.0392 203.739 9.61907C203.739 9.19892 203.566 8.77877 203.257 8.47484C203.157 8.38544 203.039 8.30499 202.93 8.2156Z" fill="#F69618"/>
<path d="M229.415 7.05347C229.833 6.67802 230.233 6.28469 230.633 5.89136C231.005 5.51591 231.087 4.93486 230.814 4.47895C230.596 4.11244 230.187 3.90684 229.779 3.90684C229.579 3.90684 229.379 3.96047 229.197 4.06774C228.734 4.34486 228.261 4.6041 227.807 4.89016C227.262 5.23879 226.762 5.65 226.262 6.06121C225.826 6.41878 225.408 6.77635 224.99 7.15181C223.927 5.82879 222.864 4.49683 221.801 3.17381C221.292 2.5123 220.793 1.85079 220.284 1.18929C220.166 1.03732 220.048 0.894288 219.939 0.74232C219.657 0.47414 219.33 0.277475 218.957 0.179143C218.767 0.107628 218.567 0.0808105 218.367 0.0808105C217.967 0.0808105 217.576 0.179143 217.231 0.384747C216.731 0.670805 216.359 1.14459 216.204 1.69883C216.059 2.21731 216.086 2.94139 216.432 3.38836C217.949 5.39076 219.503 7.36635 221.065 9.34194C221.256 9.5833 221.447 9.8336 221.638 10.0839L221.61 10.1107C220.984 10.665 220.366 11.2281 219.748 11.7824C219.43 12.0684 219.139 12.3724 218.839 12.6763C218.676 12.8372 218.503 12.9981 218.349 13.168C217.894 13.6596 217.504 14.1781 217.158 14.7413C216.759 15.376 217.022 16.2431 217.658 16.6096C218.331 16.994 219.157 16.7526 219.557 16.1179C219.702 15.8945 219.839 15.6799 219.993 15.4564C220.293 15.0899 220.62 14.7502 220.938 14.4105C221.174 14.1602 221.401 13.901 221.656 13.6596C222.201 13.1233 222.737 12.569 223.291 12.0505C223.582 12.3902 223.873 12.721 224.154 13.0607C226.344 15.6173 228.534 18.1829 230.814 20.668C231.677 21.6156 233.286 21.5352 234.167 20.668C235.094 19.7562 235.057 18.2902 234.167 17.3694C232.032 15.1704 229.988 12.8819 227.961 10.5845C227.498 10.0571 227.016 9.52072 226.553 8.9933C227.153 8.43907 227.771 7.90271 228.398 7.38423C228.761 7.41999 229.133 7.30377 229.415 7.05347Z" fill="#F69618"/>
</g>
<defs>
<clipPath id="clip0">
<rect width="234.848" height="21.9192" fill="white" transform="translate(0 0.0808105)"/>
</clipPath>
</defs>
</svg>
